<svg xmlns="http://www.w3.org/2000/svg" baseProfile="tiny-ps" version="1.2" viewBox="0 0 512 512">
  <g id="Beard">
    <path fill="#d58559" d="M433 123.06c20 61.5 18.28 96.83 13.87 129.33-.82-2.14-1.76-4.24-2.81-6.28s-2.22-4.01-3.5-5.92c-1.28-1.91-2.66-3.74-4.15-5.49-1.48-1.75-3.07-3.41-4.74-4.98.41 33.72-2.17 77.5-17.5 108.84-.27-2.45-.62-4.89-1.07-7.32-.45-2.42-.99-4.83-1.61-7.22-.63-2.38-1.34-4.74-2.15-7.07-.8-2.33-1.69-4.63-2.67-6.89-7.67 35.66-31.82 88.5-53.82 103.5.86-2.63 1.61-5.29 2.24-7.98.64-2.69 1.17-5.41 1.58-8.14.42-2.73.72-5.48.91-8.24.19-2.76.27-5.52.23-8.29-5.58 6.5-11.46 12.75-17.61 18.72-6.15 5.97-12.58 11.65-19.25 17.03-6.67 5.38-13.59 10.45-20.72 15.2-7.14 4.75-14.48 9.17-22.02 13.25-3.41 1.81-7.02 3.19-10.76 4.12-3.74.93-7.58 1.4-11.44 1.4-3.86 0-7.7-.47-11.44-1.4-3.74-.93-7.36-2.32-10.76-4.12-7.54-4.08-14.89-8.5-22.03-13.25-7.14-4.75-14.05-9.82-20.73-15.2-6.67-5.38-13.1-11.06-19.25-17.03-6.15-5.97-12.03-12.21-17.62-18.72-.04 2.77.04 5.53.23 8.29.19 2.76.49 5.51.91 8.24.42 2.73.94 5.45 1.58 8.14.64 2.69 1.39 5.35 2.24 7.98-22-15-46.15-67.84-53.82-103.5-.98 2.26-1.87 4.56-2.67 6.89-.8 2.33-1.52 4.69-2.15 7.07-.63 2.38-1.17 4.79-1.61 7.22-.45 2.42-.8 4.86-1.07 7.32-15.33-31.34-17.9-75.11-17.5-108.84-1.67 1.57-3.26 3.23-4.75 4.98-1.49 1.75-2.87 3.58-4.15 5.49-1.28 1.91-2.45 3.88-3.51 5.92-1.06 2.04-2 4.13-2.82 6.28-4.4-32.5-6.11-67.83 13.89-129.33h111c3.26 5.9 6.71 11.69 10.35 17.36 3.63 5.67 7.45 11.23 11.44 16.66 3.99 5.43 8.16 10.73 12.49 15.89s8.83 10.18 13.48 15.06c11.39 11.44 25.09 11.44 36.48 0 4.66-4.87 9.15-9.89 13.49-15.06 4.33-5.16 8.5-10.46 12.49-15.89s7.81-10.99 11.45-16.66c3.64-5.68 7.09-11.47 10.35-17.36h110.98z"/>
    <path fill="#f2a66c" d="M486 104.91c-6.24 21.76-94.76 98.72-230 38.2-135.24 60.52-223.76-16.44-230-38.2 35.76 17.76 84.48 3.28 120.96-25.56 36.48-28.84 77.72-20.68 109.04 8.32 31.32-29 72.6-37.16 109.04-8.32 36.44 28.84 85.2 43.32 120.96 25.56z"/>
    <path fill="#0b071c" fill-rule="evenodd" d="M159.55 376.37c1.98 2.34 3.99 4.63 6.05 6.9 2.06 2.26 4.16 4.49 6.3 6.67 2.14 2.19 4.32 4.33 6.54 6.44 2.22 2.11 4.47 4.17 6.76 6.2 1.39 1.23 2.23 2.97 2.34 4.82.11 1.85-.52 3.67-1.75 5.06-1.23 1.39-2.97 2.23-4.82 2.34-1.85.11-3.67-.52-5.06-1.75-4.52-4.01-8.86-8.1-13-12.28.16.88.34 1.76.54 2.64.2.88.41 1.75.65 2.62.23.87.48 1.73.75 2.59.27.86.55 1.71.86 2.56.51 1.39.56 2.91.15 4.33a7.016 7.016 0 0 1-2.43 3.59c-1.17.91-2.6 1.43-4.08 1.47-1.48.05-2.94-.38-4.16-1.21-19.88-13.56-39.16-51.93-49.96-83.82-.18 1.22-.34 2.46-.46 3.73a7.036 7.036 0 0 1-1.82 4.06c-1.03 1.12-2.4 1.87-3.9 2.14s-3.04.05-4.4-.64c-1.36-.69-2.46-1.8-3.13-3.16-10.82-22.06-16.86-52.74-18.06-91.4-.17.34-.33.69-.48 1.03-.15.35-.3.7-.44 1.05-.14.35-.28.71-.4 1.07-.13.36-.25.72-.36 1.08a6.999 6.999 0 0 1-2.77 3.73c-1.32.89-2.91 1.3-4.49 1.17-1.59-.13-3.08-.8-4.24-1.9-1.16-1.1-1.9-2.55-2.12-4.13-1.31-8.63-2.17-17.32-2.58-26.04-.41-8.72-.36-17.45.13-26.16.5-8.71 1.45-17.39 2.85-26.01 1.4-8.61 3.25-17.15 5.53-25.57-25.29-14.11-41.7-31.77-44.85-42.73-.37-1.3-.36-2.69.04-3.99.4-1.3 1.17-2.45 2.21-3.32 1.04-.87 2.32-1.42 3.66-1.57 1.35-.16 2.71.08 3.93.68 15.48 7.68 34.78 9.1 55.81 4.08 1.84-.54 3.82-.29 5.47.67 1.66.96 2.85 2.56 3.29 4.42.45 1.86.11 3.83-.93 5.43-1.04 1.61-2.7 2.72-4.58 3.07-3.57.91-7.18 1.63-10.83 2.17-3.64.54-7.31.88-10.99 1.04-3.68.16-7.37.12-11.04-.1-3.68-.22-7.34-.64-10.97-1.24 2.73 2.51 5.56 4.91 8.48 7.2 2.92 2.29 5.94 4.45 9.03 6.5 3.1 2.05 6.27 3.97 9.52 5.76 3.25 1.79 6.57 3.45 9.95 4.98 35.47 16.5 94.06 28.88 171.82-5.92.45-.2.92-.35 1.4-.46.48-.1.97-.15 1.46-.15s.98.05 1.46.15c.48.1.95.26 1.4.46 7.53 3.51 15.23 6.63 23.09 9.33 7.85 2.7 15.85 4.99 23.94 6.84 8.1 1.86 16.28 3.29 24.53 4.29s16.54 1.56 24.84 1.68h.08c1.86.01 3.63.76 4.94 2.08 1.3 1.32 2.03 3.11 2.02 4.96-.01 1.86-.76 3.63-2.08 4.94-1.32 1.3-3.11 2.03-4.96 2.02-4.48-.02-8.96-.18-13.43-.46-4.47-.29-8.93-.71-13.38-1.26-4.45-.55-8.88-1.23-13.28-2.04-4.41-.81-8.79-1.75-13.14-2.82-1.75 2.35-3.53 4.67-5.36 6.96-1.82 2.29-3.69 4.55-5.59 6.78-1.9 2.23-3.84 4.42-5.82 6.58-1.98 2.16-3.99 4.29-6.04 6.38-2.87 3.34-6.43 6.02-10.44 7.86-4 1.84-8.36 2.79-12.76 2.79-4.41 0-8.76-.95-12.76-2.79s-7.56-4.52-10.44-7.86c-2.05-2.09-4.06-4.22-6.04-6.38-1.98-2.16-3.92-4.35-5.82-6.58-1.9-2.23-3.77-4.48-5.59-6.77-1.82-2.29-3.61-4.61-5.36-6.96-61.31 14.65-107.68 1.24-133.07-10.27-1.58 6.08-2.92 12.22-4.02 18.4-1.09 6.18-1.94 12.41-2.53 18.66-.59 6.25-.94 12.53-1.03 18.81-.09 6.28.06 12.56.47 18.83.45-.54.91-1.08 1.37-1.6.47-.53.94-1.05 1.42-1.56s.97-1.02 1.47-1.52 1-.99 1.51-1.47c1.01-.92 2.27-1.53 3.62-1.74 1.35-.22 2.73-.03 3.98.53s2.3 1.47 3.03 2.63c.73 1.15 1.11 2.5 1.09 3.86-.4 34.11 2.56 62.4 8.84 84.47 1.47-4.3 2.69-6.96 2.8-7.2.62-1.33 1.64-2.44 2.92-3.16 1.28-.72 2.75-1.02 4.21-.86 1.46.16 2.83.78 3.92 1.77 1.09.98 1.84 2.29 2.15 3.72 1.72 7.31 3.75 14.55 6.1 21.69 2.35 7.14 5.01 14.17 7.97 21.07s6.23 13.67 9.79 20.29c3.56 6.62 7.4 13.08 11.52 19.36-.07-.86-.13-1.71-.18-2.57-.05-.86-.09-1.72-.12-2.58-.03-.86-.05-1.72-.05-2.58-.01-.86 0-1.72.01-2.58.04-1.42.51-2.79 1.35-3.93.84-1.14 2-2.01 3.34-2.47 1.34-.47 2.79-.52 4.16-.14s2.59 1.16 3.5 2.24zM256 150.76c-2.56 1.12-5.13 2.2-7.72 3.24s-5.2 2.05-7.81 3.01c-2.62.97-5.25 1.89-7.9 2.78-2.65.89-5.31 1.74-7.98 2.55 1.41 1.82 2.84 3.61 4.31 5.39 1.46 1.77 2.95 3.53 4.46 5.26 1.51 1.73 3.05 3.44 4.61 5.13 1.56 1.69 3.15 3.35 4.76 4.99 8.5 8.53 18.05 8.53 26.55 0 1.61-1.64 3.2-3.31 4.76-5 1.56-1.69 3.1-3.4 4.61-5.14 1.51-1.73 3-3.49 4.46-5.27 1.46-1.78 2.9-3.58 4.31-5.4-2.67-.81-5.33-1.65-7.98-2.54-2.65-.88-5.28-1.81-7.9-2.77s-5.23-1.96-7.82-3-5.17-2.11-7.73-3.23z"/>
    <path fill="#0b071c" d="M307.27 387.74c1.41-1.2 3.25-1.8 5.1-1.65 1.85.15 3.57 1.02 4.77 2.43 1.2 1.41 1.8 3.25 1.65 5.1-.15 1.85-1.02 3.57-2.43 4.77-5.69 4.85-11.68 9.54-17.81 13.94a6.9804 6.9804 0 0 1-5.19 1.17c-1.82-.31-3.44-1.32-4.51-2.82-1.07-1.5-1.52-3.36-1.23-5.18.29-1.82 1.28-3.45 2.77-4.54 5.82-4.16 11.5-8.6 16.88-13.2v-.02z"/>
    <path fill="#0b071c" d="M490.48 99.53c.51.43.96.93 1.34 1.49.37.56.66 1.17.86 1.81.2.64.3 1.31.31 1.98.01.67-.08 1.34-.26 1.99-2.77 9.64-18.21 27.84-44.86 42.72 2.29 8.42 4.13 16.96 5.53 25.57 1.4 8.61 2.35 17.3 2.85 26.01s.55 17.45.14 26.16c-.41 8.72-1.27 17.41-2.58 26.04-.22 1.57-.97 3.02-2.13 4.1-1.15 1.09-2.64 1.75-4.22 1.88-1.58.13-3.16-.28-4.47-1.16a6.973 6.973 0 0 1-2.78-3.69c-.11-.36-.24-.72-.36-1.08-.13-.36-.26-.71-.4-1.07-.14-.35-.29-.7-.44-1.05-.15-.35-.32-.69-.48-1.03-1.19 38.66-7.26 69.34-18.06 91.4-.67 1.37-1.77 2.48-3.13 3.16-1.36.69-2.9.91-4.4.64-1.5-.27-2.87-1.02-3.9-2.14-1.03-1.12-1.67-2.54-1.82-4.06-.12-1.26-.28-2.51-.46-3.73-10.81 31.89-30.07 70.26-49.95 83.82-1.22.84-2.68 1.26-4.16 1.21-1.48-.05-2.91-.56-4.08-1.47a7.016 7.016 0 0 1-2.43-3.59c-.41-1.42-.36-2.94.15-4.33.3-.85.59-1.7.85-2.56.27-.86.52-1.72.75-2.59.23-.87.45-1.74.65-2.62.2-.88.38-1.76.54-2.64-4.98 5.01-10.13 9.83-15.46 14.45-5.33 4.63-10.83 9.06-16.48 13.28-5.65 4.22-11.46 8.24-17.41 12.04-5.95 3.8-12.03 7.38-18.25 10.73-3.91 2.08-8.06 3.67-12.35 4.74-4.29 1.07-8.7 1.61-13.13 1.61-4.43 0-8.83-.54-13.13-1.61-4.29-1.07-8.44-2.66-12.35-4.74-2.12-1.13-4.22-2.29-6.3-3.47-2.08-1.19-4.15-2.4-6.2-3.64-2.05-1.24-4.09-2.51-6.1-3.81-2.02-1.3-4.02-2.62-5.99-3.98-1.54-1.04-2.6-2.65-2.95-4.48-.35-1.82.04-3.71 1.08-5.25s2.65-2.6 4.48-2.95c1.82-.35 3.71.04 5.25 1.07 1.88 1.28 3.77 2.54 5.68 3.76 1.91 1.23 3.84 2.43 5.78 3.61 1.94 1.18 3.9 2.33 5.87 3.45 1.97 1.12 3.96 2.22 5.96 3.29 2.9 1.54 5.98 2.72 9.17 3.51a40.5357 40.5357 0 0 0 19.5 0c3.19-.79 6.27-1.97 9.17-3.51 7.35-3.96 14.51-8.26 21.46-12.89 6.95-4.62 13.69-9.56 20.19-14.8 6.5-5.24 12.75-10.78 18.74-16.59 5.99-5.82 11.71-11.9 17.14-18.25.91-1.08 2.14-1.86 3.5-2.24 1.37-.37 2.82-.32 4.15.14 1.34.47 2.5 1.33 3.34 2.47.84 1.14 1.31 2.51 1.35 3.93.01.86.02 1.72.01 2.58-.01.86-.02 1.72-.05 2.58-.03.86-.07 1.72-.12 2.58-.05.86-.11 1.72-.18 2.57 4.12-6.28 7.97-12.74 11.52-19.36 3.56-6.62 6.82-13.39 9.79-20.29 2.96-6.9 5.62-13.93 7.97-21.07 2.35-7.14 4.38-14.37 6.1-21.69.31-1.44 1.06-2.74 2.15-3.72 1.09-.98 2.46-1.6 3.92-1.77 1.46-.16 2.93.14 4.21.86 1.28.72 2.3 1.82 2.92 3.16.1.26 1.32 2.92 2.8 7.2 6.28-22.07 9.24-50.36 8.84-84.47-.02-1.37.37-2.71 1.1-3.86.74-1.15 1.79-2.06 3.04-2.62s2.63-.74 3.98-.52c1.35.22 2.6.83 3.61 1.75.51.48 1.02.98 1.51 1.47.5.5.99 1.01 1.47 1.52s.96 1.03 1.42 1.56c.47.53.92 1.06 1.37 1.6.41-6.27.57-12.55.47-18.83-.09-6.28-.44-12.55-1.03-18.81-.59-6.25-1.44-12.48-2.53-18.66-1.09-6.18-2.43-12.32-4.02-18.4-2.9 1.32-5.84 2.56-8.81 3.72-2.97 1.16-5.97 2.25-8.99 3.26-3.02 1.01-6.07 1.94-9.15 2.79-3.07.85-6.17 1.63-9.28 2.32-.13.03-.25.05-.38.07-.13.02-.26.04-.38.05l-.39.03c-.13.01-.26.01-.39.01-1.72 0-3.39-.64-4.67-1.79-1.28-1.15-2.1-2.73-2.28-4.45-.19-1.71.26-3.44 1.26-4.84s2.49-2.38 4.17-2.76c6.64-1.39 13.17-3.22 19.57-5.46 6.4-2.24 12.64-4.9 18.7-7.96 6.05-3.06 11.9-6.5 17.5-10.32 5.6-3.82 10.95-8 16.01-12.51-32.68 5.86-72.38-6.08-106.88-33.36-30.84-24.4-68.19-21.43-99.95 7.97-.64.59-1.39 1.06-2.2 1.38-.81.32-1.68.48-2.55.48-.87 0-1.74-.16-2.55-.48-.81-.32-1.56-.79-2.2-1.38-31.75-29.39-69.11-32.37-99.94-7.97-2.09 1.65-4.2 3.25-6.34 4.8-1.51 1.09-3.38 1.53-5.21 1.24-1.83-.3-3.47-1.31-4.56-2.81-1.09-1.51-1.53-3.38-1.24-5.21.3-1.83 1.31-3.47 2.81-4.56 1.98-1.42 3.94-2.89 5.85-4.4 34.62-27.4 77.58-25.52 113.38 4.48 35.78-30.01 78.76-31.88 113.38-4.48 31.38 24.81 78.64 42.09 113.5 24.78.61-.3 1.25-.51 1.92-.63.67-.12 1.35-.14 2.02-.06.67.08 1.33.25 1.95.52.62.27 1.2.62 1.72 1.06zm-381.58 9.56c-1.61 0-3.18-.55-4.43-1.57-1.25-1.02-2.11-2.44-2.44-4.02-.32-1.58-.09-3.23.66-4.66.75-1.43 1.97-2.56 3.46-3.19 4.6-1.96 9.21-4.2 13.69-6.67 1.63-.88 3.53-1.07 5.3-.55s3.26 1.72 4.15 3.34c.89 1.62 1.1 3.52.6 5.3-.51 1.77-1.7 3.28-3.31 4.18-4.89 2.69-9.92 5.14-14.94 7.28-.22.09-.44.17-.66.24-.22.07-.45.13-.68.18-.23.05-.46.08-.7.11-.23.02-.47.04-.7.04z"/>
  </g>
  <g id="Wheel">
    <path fill="#622876" d="M446.13 486.2v5.42c-18.28 10.58-39.5 16.63-62.13 16.63l62.13-22.05z"/>
    <path fill="#962b7c" d="M446.13 384v102.2c-17.64 13.9-39.05 22.05-62.13 22.05l-29.12-50.96L384 384h62.13z"/>
    <path fill="#2d2570" d="M491.62 405.48v40.65c-10.91 18.86-26.63 34.58-45.49 45.49l-2.17-3.75 47.65-82.38z"/>
    <path fill="#622876" d="M491.62 405.48c-5.27 34.39-22.98 63.92-47.65 82.38L384 383.99h107.62v21.48z"/>
    <path fill="#0556b2" d="M508.25 384c0 22.64-6.06 43.86-16.63 62.13l-10.18-5.88 11.54-64.98 15.27 8.73z"/>
    <path fill="#077ccc" d="M492.98 375.27c.18 2.88.27 5.79.27 8.73 0 20.25-4.26 39.36-11.82 56.25L384 384l73.29-29.12 35.69 20.39z"/>
    <path fill="#077ccc" d="M491.62 321.87c10.58 18.28 16.63 39.5 16.63 62.13h-15l-14.62-62.13h12.99z"/>
    <path fill="#09a1e5" d="M478.63 321.87c9.3 18.28 14.62 39.5 14.62 62.13H384l14.56-62.13h80.07z"/>
    <path fill="#2897b1" d="M446.13 276.38c18.86 10.91 34.58 26.63 45.49 45.48l-10.18 5.88-42.8-51.36h7.5z"/>
    <path fill="#49b296" d="M438.63 276.38c18.27 12.03 33.2 29.9 42.8 51.37L384 384l14.56-107.62h40.07z"/>
    <path fill="#49b296" d="m446.13 276.38-2.17 3.75-59.97-20.38c22.64 0 43.86 6.06 62.13 16.63z"/>
    <path fill="#89c247" d="M384 259.75c22.15 0 42.75 7.5 59.97 20.38L384 384l-29.12-73.29L384 259.75z"/>
    <path fill="#cb2e81" d="M321.87 384H384v124.25c-22.64 0-43.86-6.06-62.13-16.63V384z"/>
    <path fill="#ff3187" d="M276.38 384H384l-62.13 107.62c-18.85-10.91-34.58-26.63-45.49-45.49V384z"/>
    <path fill="#ff5178" d="M310.71 354.88 384 384l-107.62 62.13c-10.58-18.28-16.63-39.5-16.63-62.13l50.96-29.12z"/>
    <path fill="#ff9259" d="M369.44 321.87 384 384H259.75c0-22.64 6.06-43.86 16.63-62.13h93.06z"/>
    <path fill="#ffb24a" d="M369.44 276.38 384 384l-107.62-62.13c10.91-18.85 26.63-34.58 45.49-45.49h47.57z"/>
    <path fill="#ffd23b" d="m384 384-62.13-107.62c18.28-10.58 39.5-16.63 62.13-16.63V384z"/>
    <path fill="#fff0be" d="M454 384c0 38.66-31.34 70-70 70V314c38.66 0 70 31.34 70 70z"/>
    <path fill="#fff" d="M384 454c-38.66 0-70-31.34-70-70s31.34-70 70-70c30.38 0 55 31.34 55 70s-24.62 70-55 70z"/>
    <path fill-rule="evenodd" d="M293.49 474.51C269.31 450.33 256 418.19 256 384c0-34.19 13.31-66.33 37.49-90.51C317.67 269.31 349.81 256 384 256c34.19 0 66.33 13.31 90.51 37.49C498.69 317.67 512 349.81 512 384c0 34.19-13.31 66.33-37.49 90.51C450.33 498.69 418.19 512 384 512c-34.19 0-66.33-13.31-90.51-37.49zM384 263.5c-66.44 0-120.5 54.06-120.5 120.5S317.56 504.5 384 504.5 504.5 450.44 504.5 384 450.44 263.5 384 263.5z"/>
    <path fill-rule="evenodd" d="M384 457.75c-40.67 0-73.75-33.08-73.75-73.75s33.08-73.75 73.75-73.75 73.75 33.08 73.75 73.75-33.08 73.75-73.75 73.75zm0-140c-36.53 0-66.25 29.72-66.25 66.25s29.72 66.25 66.25 66.25 66.25-29.72 66.25-66.25-29.72-66.25-66.25-66.25z"/>
    <path d="M384 512c-2.07 0-3.75-1.68-3.75-3.75V454c0-2.07 1.68-3.75 3.75-3.75 2.07 0 3.75 1.68 3.75 3.75v54.25c0 2.07-1.68 3.75-3.75 3.75zm62.13-16.65c-1.3 0-2.56-.67-3.25-1.88l-27.13-46.98c-1.04-1.79-.42-4.09 1.37-5.12 1.79-1.03 4.09-.42 5.12 1.37l27.13 46.98c1.04 1.79.42 4.09-1.37 5.12-.59.34-1.24.5-1.87.5zm45.47-45.47c-.64 0-1.28-.16-1.87-.5l-46.98-27.13c-1.79-1.04-2.41-3.33-1.37-5.12 1.03-1.79 3.33-2.41 5.12-1.37l46.98 27.13c1.79 1.04 2.41 3.33 1.37 5.12-.69 1.2-1.96 1.88-3.25 1.88zm16.65-62.13H454c-2.07 0-3.75-1.68-3.75-3.75 0-2.07 1.68-3.75 3.75-3.75h54.25c2.07 0 3.75 1.68 3.75 3.75 0 2.07-1.68 3.75-3.75 3.75zm-63.62-35c-1.3 0-2.56-.67-3.25-1.88-1.04-1.79-.42-4.09 1.37-5.12l46.98-27.13c1.79-1.04 4.09-.42 5.12 1.37 1.04 1.79.42 4.09-1.37 5.12l-46.98 27.13c-.59.34-1.24.5-1.87.5zM419 327.13c-.64 0-1.28-.16-1.87-.5-1.79-1.04-2.41-3.33-1.37-5.12l27.13-46.98c1.03-1.79 3.33-2.41 5.12-1.37s2.41 3.33 1.37 5.12l-27.13 46.98c-.69 1.2-1.95 1.88-3.25 1.88zm-35-9.38c-2.07 0-3.75-1.68-3.75-3.75v-54.25c0-2.07 1.68-3.75 3.75-3.75 2.07 0 3.75 1.68 3.75 3.75V314c0 2.07-1.68 3.75-3.75 3.75zm-35 9.38c-1.3 0-2.56-.67-3.25-1.88l-27.13-46.98c-1.04-1.79-.42-4.09 1.37-5.12 1.79-1.04 4.09-.42 5.12 1.37l27.13 46.98c1.04 1.79.42 4.09-1.37 5.12-.59.34-1.24.5-1.87.5zm-25.63 25.62c-.64 0-1.28-.16-1.87-.5l-46.98-27.13c-1.79-1.04-2.41-3.33-1.37-5.12 1.03-1.79 3.33-2.41 5.12-1.37l46.98 27.13c1.79 1.04 2.41 3.33 1.37 5.12-.69 1.2-1.96 1.88-3.25 1.88zm-9.37 35h-54.25c-2.07 0-3.75-1.68-3.75-3.75 0-2.07 1.68-3.75 3.75-3.75H314c2.07 0 3.75 1.68 3.75 3.75 0 2.07-1.68 3.75-3.75 3.75zm-37.6 62.13c-1.3 0-2.56-.67-3.25-1.88-1.04-1.79-.42-4.09 1.37-5.12l46.98-27.13c1.79-1.04 4.09-.42 5.12 1.37 1.04 1.79.42 4.09-1.37 5.12l-46.98 27.13c-.59.34-1.24.5-1.87.5zm45.47 45.47c-.64 0-1.28-.16-1.87-.5-1.79-1.04-2.41-3.33-1.37-5.12l27.13-46.98c1.04-1.79 3.33-2.41 5.12-1.37s2.41 3.33 1.37 5.12l-27.13 46.98c-.69 1.2-1.95 1.88-3.25 1.88z"/>
    <path fill="#ff3187" d="M414 390.25c0 16.57-13.43 30-30 30V344l22.83 26.8c4.47 5.24 7.17 12.03 7.17 19.45z"/>
    <path fill="#ff5178" d="M384 420.25c-16.57 0-30-13.43-30-30 0-7.42 2.7-14.21 7.17-19.45L384 344l11.42 26.8c2.23 5.24 3.58 12.03 3.58 19.45 0 16.57-6.72 30-15 30z"/>
    <path d="M384 424c-18.61 0-33.75-15.14-33.75-33.75 0-8.01 2.86-15.78 8.06-21.88 1.34-1.58 3.71-1.76 5.29-.42s1.76 3.71.42 5.29c-4.04 4.74-6.27 10.79-6.27 17.02 0 14.47 11.78 26.25 26.25 26.25s26.25-11.78 26.25-26.25c0-6.23-2.23-12.27-6.27-17.02L384 349.79l-10.25 12.03c-1.34 1.58-3.71 1.77-5.29.42-1.58-1.34-1.77-3.71-.42-5.29l13.1-15.38c.71-.84 1.76-1.32 2.85-1.32 1.1 0 2.14.48 2.85 1.32l22.83 26.8c5.2 6.1 8.06 13.87 8.06 21.88 0 18.61-15.14 33.75-33.75 33.75z"/>
  </g>
</svg>