<svg xmlns="http://www.w3.org/2000/svg" viewBox="0 0 128 128">
  <path fill="#d58559" d="M108.25 30.765H80.505A78.617 78.617 0 0 1 68.56 47.008c-2.847 2.861-6.273 2.861-9.12 0A78.617 78.617 0 0 1 47.5 30.765H19.75c-5 15.375-4.571 24.208-3.472 32.333a15.207 15.207 0 0 1 3.805-5.667c-.1 8.431.542 19.375 4.375 27.209a24.752 24.752 0 0 1 1.875-7.125c1.917 8.916 7.954 22.125 13.454 25.875a25.258 25.258 0 0 1-1.24-8.165 70.326 70.326 0 0 0 19.905 16.049 11.842 11.842 0 0 0 11.1 0 70.326 70.326 0 0 0 19.901-16.049 25.258 25.258 0 0 1-1.24 8.165c5.5-3.75 11.537-16.959 13.454-25.875a24.752 24.752 0 0 1 1.875 7.125c3.833-7.834 4.478-18.778 4.375-27.209a15.207 15.207 0 0 1 3.8 5.667c1.104-8.125 1.533-16.958-3.467-32.333z"/>
  <path fill="#f2a66c" d="M121.5 26.227c-1.56 5.44-23.69 24.68-57.5 9.55-33.81 15.13-55.94-4.11-57.5-9.55 8.94 4.44 21.12.82 30.24-6.39s19.43-5.17 27.26 2.08c7.83-7.25 18.15-9.29 27.26-2.08s21.3 10.83 30.24 6.39z"/>
  <g fill="#0b071c">
    <path d="M39.888 94.092a1.75 1.75 0 0 0-3.088 1.077 25.469 25.469 0 0 0 .086 2.576 64.294 64.294 0 0 1-8.846-20.6 1.751 1.751 0 0 0-3.3-.369 20.19 20.19 0 0 0-.7 1.8c-1.569-5.517-2.311-12.589-2.21-21.117a1.75 1.75 0 0 0-2.93-1.319 17.5 17.5 0 0 0-1.444 1.54 58.88 58.88 0 0 1 1.777-18.675c6.348 2.878 17.941 6.23 33.268 2.568a64.7 64.7 0 0 0 5.7 6.672 7.652 7.652 0 0 0 11.6 0 64.691 64.691 0 0 0 5.7-6.676 56.882 56.882 0 0 0 13.307 1.646 1.75 1.75 0 1 0 .021-3.5h-.021a59.036 59.036 0 0 1-24.1-5.534 1.747 1.747 0 0 0-1.43 0c-19.438 8.7-34.087 5.606-42.954 1.481a34.881 34.881 0 0 1-9.246-6.11 26.75 26.75 0 0 0 10.959-.468 1.75 1.75 0 1 0-.813-3.4c-5.257 1.256-10.082.9-13.953-1.019a1.751 1.751 0 0 0-2.461 2.05c.786 2.74 4.89 7.154 11.212 10.682a62.922 62.922 0 0 0-1.483 25.944 1.75 1.75 0 0 0 3.405.283 7.645 7.645 0 0 1 .424-1.057c.3 9.665 1.81 17.335 4.514 22.849a1.75 1.75 0 0 0 3.312-.6c.031-.316.07-.627.115-.932 2.7 7.973 7.518 17.566 12.489 20.955a1.75 1.75 0 0 0 2.629-2.046 16.791 16.791 0 0 1-.7-2.6q1.555 1.568 3.251 3.071a1.75 1.75 0 0 0 2.323-2.619 63.445 63.445 0 0 1-6.413-6.553zM64 37.69a71.762 71.762 0 0 0 7.855 2.883 59.215 59.215 0 0 1-4.536 5.2c-2.125 2.133-4.513 2.132-6.638 0a59.085 59.085 0 0 1-4.535-5.189A70.986 70.986 0 0 0 64 37.69zm12.818 59.251a62.75 62.75 0 0 1-4.221 3.3 1.75 1.75 0 0 0 2.041 2.843 67.99 67.99 0 0 0 4.452-3.485 1.75 1.75 0 0 0-2.272-2.663z"/>
    <path d="M122.62 24.883a1.748 1.748 0 0 0-1.9-.223c-8.716 4.328-20.531.007-28.376-6.195-8.657-6.851-19.4-6.383-28.346 1.12-8.949-7.5-19.689-7.972-28.345-1.121a37.96 37.96 0 0 1-1.462 1.1 1.75 1.75 0 0 0 2.049 2.838q.8-.581 1.584-1.2c7.709-6.1 17.048-5.355 24.986 1.993a1.748 1.748 0 0 0 2.376 0c7.939-7.349 17.278-8.093 24.987-1.992 8.625 6.819 18.549 9.805 26.719 8.34a38.994 38.994 0 0 1-17.946 9.062 1.75 1.75 0 0 0 .38 3.458 1.806 1.806 0 0 0 .384-.042 46.415 46.415 0 0 0 9.057-3.023 58.882 58.882 0 0 1 1.777 18.675 17.5 17.5 0 0 0-1.444-1.54 1.75 1.75 0 0 0-2.932 1.311c.1 8.528-.641 15.6-2.21 21.117-.37-1.071-.674-1.734-.7-1.8a1.751 1.751 0 0 0-3.3.369 64.294 64.294 0 0 1-8.846 20.6 25.464 25.464 0 0 0 .086-2.576 1.75 1.75 0 0 0-3.087-1.077 68.057 68.057 0 0 1-19.383 15.632 10.091 10.091 0 0 1-9.458 0 63.1 63.1 0 0 1-5.824-3.53 1.75 1.75 0 0 0-1.967 2.9 66.447 66.447 0 0 0 6.151 3.726 13.579 13.579 0 0 0 12.739 0 72.144 72.144 0 0 0 16.9-12.626 16.944 16.944 0 0 1-.7 2.6 1.75 1.75 0 0 0 2.63 2.046c4.97-3.389 9.786-12.982 12.488-20.955.045.305.084.616.115.932a1.75 1.75 0 0 0 3.312.6c2.7-5.514 4.217-13.184 4.514-22.849a7.645 7.645 0 0 1 .424 1.057 1.75 1.75 0 0 0 3.4-.283 62.961 62.961 0 0 0-1.487-25.945c6.663-3.721 10.524-8.27 11.216-10.681a1.752 1.752 0 0 0-.561-1.818zm-95.395 2.389a1.736 1.736 0 0 0 .685-.141 41.846 41.846 0 0 0 3.736-1.819 1.75 1.75 0 0 0-1.686-3.067 38.653 38.653 0 0 1-3.423 1.667 1.75 1.75 0 0 0 .688 3.36z"/>
  </g>
</svg>