<svg xmlns="http://www.w3.org/2000/svg" viewBox="0 0 512 512">
  <path fill="#ff5722" d="M227.174 256c0 63.513-128.766 115-186.499 115s-22.571-51.487-22.571-115-35.162-115 22.571-115 186.499 51.487 186.499 115zm57.652 0c0 63.513 128.766 115 186.499 115s22.571-51.487 22.571-115 35.162-115-22.571-115-186.499 51.487-186.499 115z"/>
  <path fill="#f4511e" d="M471.325 141c-5.094 0-10.75.409-16.813 1.184 38.601 8.004 9.384 55.908 9.384 113.816s29.217 105.812-9.384 113.816c6.063.775 11.719 1.184 16.813 1.184 57.733 0 22.57-51.487 22.57-115s35.163-115-22.57-115z"/>
  <path fill="#ffd740" d="M270.637 302.637h-29.273c-17.6 0-32-14.4-32-32v-29.273c0-17.6 14.4-32 32-32h29.273c17.6 0 32 14.4 32 32v29.273c0 17.6-14.4 32-32 32z"/>
  <path fill="#ffc400" d="M270.637 209.364h-29.273c-.122 0-.242.008-.363.009 17.434.198 31.637 14.512 31.637 31.991v29.273c0 17.478-14.203 31.793-31.637 31.991.122.001.242.009.363.009h29.273c17.6 0 32-14.4 32-32v-29.273c0-17.601-14.4-32-32-32z"/>
  <path d="M509.537 320.224a7.498 7.498 0 0 0-8.638-6.154 7.5 7.5 0 0 0-6.154 8.639c2.766 16.466 3.583 28.644-1.419 34.557-3.5 4.137-10.912 6.235-22.03 6.235-43.466 0-131.971-31.722-165.721-74.497a39.178 39.178 0 0 0 3.828-10.898c17.72 7.204 48.022 17.963 92.386 28.637a7.5 7.5 0 0 0 9.046-5.538 7.5 7.5 0 0 0-5.537-9.046c-48.034-11.557-79.026-23.128-95.177-29.996v-13.1c21.911-8.536 59.565-22.056 94.913-29.221a7.5 7.5 0 0 0 5.86-8.84 7.497 7.497 0 0 0-8.839-5.861c-34.025 6.896-69.92 19.429-92.763 28.164a39.194 39.194 0 0 0-3.716-10.306c33.75-42.775 122.255-74.497 165.721-74.497 11.165 0 18.593 2.117 22.077 6.292 6.313 7.563 3.11 25.196-.598 45.613-3.005 16.546-6.411 35.3-6.411 55.596 0 10.636.915 21.714 2.88 34.861a7.501 7.501 0 0 0 8.526 6.31 7.5 7.5 0 0 0 6.308-8.526c-1.852-12.396-2.715-22.769-2.715-32.645 0-18.944 3.278-36.992 6.17-52.915 4.562-25.116 8.165-44.955-2.644-57.906-6.559-7.859-17.548-11.68-33.592-11.68-25.053 0-61.711 9.083-95.669 23.705-20.879 8.99-57.415 27.407-79.677 53.877-6.862-5.749-15.694-9.219-25.325-9.219h-29.27c-9.632 0-18.466 3.471-25.328 9.221-18.91-22.382-52.088-43.64-92.768-59.198a7.5 7.5 0 0 0-5.357 14.011c39.865 15.246 71.743 35.871 88.501 57.102a39.198 39.198 0 0 0-3.715 10.305c-22.842-8.735-58.738-21.268-92.763-28.164a7.496 7.496 0 0 0-8.839 5.861 7.499 7.499 0 0 0 5.86 8.84c35.347 7.164 73.002 20.685 94.913 29.221v13.1c-16.151 6.868-47.143 18.439-95.177 29.996a7.5 7.5 0 0 0-5.537 9.046 7.5 7.5 0 0 0 9.046 5.538c44.378-10.678 74.685-21.44 92.403-28.644a39.67 39.67 0 0 0 3.836 10.872C172.699 331.761 84.161 363.5 40.684 363.5c-11.165 0-18.593-2.117-22.077-6.292-6.313-7.563-3.11-25.196.598-45.613 3.005-16.546 6.411-35.3 6.411-55.596s-3.406-39.049-6.411-55.596c-3.708-20.417-6.911-38.049-.598-45.613 3.485-4.175 10.912-6.292 22.077-6.292 12.614 0 29.489 2.716 47.517 7.648a7.5 7.5 0 0 0 3.957-14.468c-19.561-5.351-37.36-8.18-51.474-8.18-16.044 0-27.033 3.82-33.592 11.68-10.809 12.951-7.206 32.79-2.644 57.906 2.892 15.923 6.17 33.97 6.17 52.915s-3.278 36.992-6.17 52.915c-4.562 25.116-8.165 44.955 2.644 57.906 6.559 7.859 17.548 11.68 33.592 11.68 25.053 0 61.711-9.083 95.669-23.705 20.94-9.016 57.628-27.515 79.871-54.109a7.5 7.5 0 0 0 8.379-12.226c-4.995-4.701-7.745-11.031-7.745-17.823v-29.273c0-13.517 11.005-24.5 24.497-24.5h29.27c13.492 0 24.497 10.984 24.497 24.5v29.273c0 13.517-11.006 24.5-24.497 24.5h-21.019a7.5 7.5 0 0 0 0 15h21.019c9.631 0 18.464-3.47 25.325-9.219 22.262 26.47 58.798 44.887 79.677 53.877 33.959 14.622 70.617 23.705 95.669 23.705 15.956 0 26.908-3.777 33.481-11.547 9.715-11.484 7.796-28.658 4.76-46.729z"/>
</svg>