<svg xmlns="http://www.w3.org/2000/svg" viewBox="0 0 512 512">
  <path fill="#ff5722" d="M227.174 256c0 63.513-128.766 115-186.499 115s-22.571-51.487-22.571-115-35.162-115 22.571-115 186.499 51.487 186.499 115zm57.652 0c0 63.513 128.766 115 186.499 115s22.571-51.487 22.571-115 35.162-115-22.571-115-186.499 51.487-186.499 115z"/>
  <path fill="#f4511e" d="M471.325 141c-5.094 0-10.75.409-16.813 1.184 38.601 8.004 9.384 55.908 9.384 113.816s29.217 105.812-9.384 113.816c6.063.775 11.719 1.184 16.813 1.184 57.733 0 22.57-51.487 22.57-115s35.163-115-22.57-115z"/>
  <path fill="#ffd740" d="M270.637 302.637h-29.273c-17.6 0-32-14.4-32-32v-29.273c0-17.6 14.4-32 32-32h29.273c17.6 0 32 14.4 32 32v29.273c0 17.6-14.4 32-32 32z"/>
  <path fill="#ffc400" d="M270.637 209.364h-29.273c-.122 0-.242.008-.363.009 17.434.198 31.637 14.512 31.637 31.991v29.273c0 17.478-14.203 31.793-31.637 31.991.122.001.242.009.363.009h29.273c17.6 0 32-14.4 32-32v-29.273c0-17.601-14.4-32-32-32z"/>
  <path d="M509.537 320.224a7.498 7.498 0 0 0-8.638-6.154 7.5 7.5 0 0 0-6.154 8.639c2.766 16.466 3.583 28.644-1.419 34.557-3.5 4.137-10.912 6.235-22.03 6.235-43.466 0-131.971-31.722-165.721-74.497a39.178 39.178 0 0 0 3.828-10.898c17.72 7.204 48.022 17.963 92.386 28.637a7.5 7.5 0 0 0 9.046-5.538 7.5 7.5 0 0 0-5.537-9.046c-48.034-11.557-79.026-23.128-95.177-29.996v-13.1c21.911-8.536 59.565-22.056 94.913-29.221a7.5 7.5 0 0 0 5.86-8.84 7.497 7.497 0 0 0-8.839-5.861c-34.025 6.896-69.92 19.429-92.763 28.164a39.194 39.194 0 0 0-3.716-10.306c33.75-42.775 122.255-74.497 165.721-74.497 11.165 0 18.593 2.117 22.077 6.292 6.313 7.563 3.11 25.196-.598 45.613-3.005 16.546-6.411 35.3-6.411 55.596 0 10.636.915 21.714 2.88 34.861a7.501 7.501 0 0 0 8.526 6.31 7.5 7.5 0 0 0 6.308-8.526c-1.852-12.396-2.715-22.769-2.715-32.645 0-18.944 3.278-36.992 6.17-52.915 4.562-25.116 8.165-44.955-2.644-57.906-6.559-7.859-17.548-11.68-33.592-11.68-25.053 0-61.711 9.083-95.669 23.705-20.879 8.99-57.415 27.407-79.677 53.877-6.862-5.749-15.694-9.219-25.325-9.219h-29.27c-9.632 0-18.466 3.471-25.328 9.221-18.91-22.382-52.088-43.64-92.768-59.198a7.5 7.5 0 0 0-5.357 14.011c39.865 15.246 71.743 35.871 88.501 57.102a39.198 39.198 0 0 0-3.715 10.305c-22.842-8.735-58.738-21.268-92.763-28.164a7.496 7.496 0 0 0-8.839 5.861 7.499 7.499 0 0 0 5.86 8.84c35.347 7.164 73.002 20.685 94.913 29.221v13.1c-16.151 6.868-47.143 18.439-95.177 29.996a7.5 7.5 0 0 0-5.537 9.046 7.5 7.5 0 0 0 9.046 5.538c44.378-10.678 74.685-21.44 92.403-28.644a39.67 39.67 0 0 0 3.836 10.872C172.699 331.761 84.161 363.5 40.684 363.5c-11.165 0-18.593-2.117-22.077-6.292-6.313-7.563-3.11-25.196.598-45.613 3.005-16.546 6.411-35.3 6.411-55.596s-3.406-39.049-6.411-55.596c-3.708-20.417-6.911-38.049-.598-45.613 3.485-4.175 10.912-6.292 22.077-6.292 12.614 0 29.489 2.716 47.517 7.648a7.5 7.5 0 0 0 3.957-14.468c-19.561-5.351-37.36-8.18-51.474-8.18-16.044 0-27.033 3.82-33.592 11.68-10.809 12.951-7.206 32.79-2.644 57.906 2.892 15.923 6.17 33.97 6.17 52.915s-3.278 36.992-6.17 52.915c-4.562 25.116-8.165 44.955 2.644 57.906 6.559 7.859 17.548 11.68 33.592 11.68 25.053 0 61.711-9.083 95.669-23.705 20.94-9.016 57.628-27.515 79.871-54.109a7.5 7.5 0 0 0 8.379-12.226c-4.995-4.701-7.745-11.031-7.745-17.823v-29.273c0-13.517 11.005-24.5 24.497-24.5h29.27c13.492 0 24.497 10.984 24.497 24.5v29.273c0 13.517-11.006 24.5-24.497 24.5h-21.019a7.5 7.5 0 0 0 0 15h21.019c9.631 0 18.464-3.47 25.325-9.219 22.262 26.47 58.798 44.887 79.677 53.877 33.959 14.622 70.617 23.705 95.669 23.705 15.956 0 26.908-3.777 33.481-11.547 9.715-11.484 7.796-28.658 4.76-46.729z"/>
  <g id="Wheel">
    <path fill="#622876" d="M446.13 486.2v5.42c-18.28 10.58-39.5 16.63-62.13 16.63l62.13-22.05z"/>
    <path fill="#962b7c" d="M446.13 384v102.2c-17.64 13.9-39.05 22.05-62.13 22.05l-29.12-50.96L384 384h62.13z"/>
    <path fill="#2d2570" d="M491.62 405.48v40.65c-10.91 18.86-26.63 34.58-45.49 45.49l-2.17-3.75 47.65-82.38z"/>
    <path fill="#622876" d="M491.62 405.48c-5.27 34.39-22.98 63.92-47.65 82.38L384 383.99h107.62v21.48z"/>
    <path fill="#0556b2" d="M508.25 384c0 22.64-6.06 43.86-16.63 62.13l-10.18-5.88 11.54-64.98 15.27 8.73z"/>
    <path fill="#077ccc" d="M492.98 375.27c.18 2.88.27 5.79.27 8.73 0 20.25-4.26 39.36-11.82 56.25L384 384l73.29-29.12 35.69 20.39z"/>
    <path fill="#077ccc" d="M491.62 321.87c10.58 18.28 16.63 39.5 16.63 62.13h-15l-14.62-62.13h12.99z"/>
    <path fill="#09a1e5" d="M478.63 321.87c9.3 18.28 14.62 39.5 14.62 62.13H384l14.56-62.13h80.07z"/>
    <path fill="#2897b1" d="M446.13 276.38c18.86 10.91 34.58 26.63 45.49 45.48l-10.18 5.88-42.8-51.36h7.5z"/>
    <path fill="#49b296" d="M438.63 276.38c18.27 12.03 33.2 29.9 42.8 51.37L384 384l14.56-107.62h40.07z"/>
    <path fill="#49b296" d="m446.13 276.38-2.17 3.75-59.97-20.38c22.64 0 43.86 6.06 62.13 16.63z"/>
    <path fill="#89c247" d="M384 259.75c22.15 0 42.75 7.5 59.97 20.38L384 384l-29.12-73.29L384 259.75z"/>
    <path fill="#cb2e81" d="M321.87 384H384v124.25c-22.64 0-43.86-6.06-62.13-16.63V384z"/>
    <path fill="#ff3187" d="M276.38 384H384l-62.13 107.62c-18.85-10.91-34.58-26.63-45.49-45.49V384z"/>
    <path fill="#ff5178" d="M310.71 354.88 384 384l-107.62 62.13c-10.58-18.28-16.63-39.5-16.63-62.13l50.96-29.12z"/>
    <path fill="#ff9259" d="M369.44 321.87 384 384H259.75c0-22.64 6.06-43.86 16.63-62.13h93.06z"/>
    <path fill="#ffb24a" d="M369.44 276.38 384 384l-107.62-62.13c10.91-18.85 26.63-34.58 45.49-45.49h47.57z"/>
    <path fill="#ffd23b" d="m384 384-62.13-107.62c18.28-10.58 39.5-16.63 62.13-16.63V384z"/>
    <path fill="#fff0be" d="M454 384c0 38.66-31.34 70-70 70V314c38.66 0 70 31.34 70 70z"/>
    <path fill="#fff" d="M384 454c-38.66 0-70-31.34-70-70s31.34-70 70-70c30.38 0 55 31.34 55 70s-24.62 70-55 70z"/>
    <path fill-rule="evenodd" d="M293.49 474.51C269.31 450.33 256 418.19 256 384c0-34.19 13.31-66.33 37.49-90.51C317.67 269.31 349.81 256 384 256c34.19 0 66.33 13.31 90.51 37.49C498.69 317.67 512 349.81 512 384c0 34.19-13.31 66.33-37.49 90.51C450.33 498.69 418.19 512 384 512c-34.19 0-66.33-13.31-90.51-37.49zM384 263.5c-66.44 0-120.5 54.06-120.5 120.5S317.56 504.5 384 504.5 504.5 450.44 504.5 384 450.44 263.5 384 263.5z"/>
    <path fill-rule="evenodd" d="M384 457.75c-40.67 0-73.75-33.08-73.75-73.75s33.08-73.75 73.75-73.75 73.75 33.08 73.75 73.75-33.08 73.75-73.75 73.75zm0-140c-36.53 0-66.25 29.72-66.25 66.25s29.72 66.25 66.25 66.25 66.25-29.72 66.25-66.25-29.72-66.25-66.25-66.25z"/>
    <path d="M384 512c-2.07 0-3.75-1.68-3.75-3.75V454c0-2.07 1.68-3.75 3.75-3.75 2.07 0 3.75 1.68 3.75 3.75v54.25c0 2.07-1.68 3.75-3.75 3.75zm62.13-16.65c-1.3 0-2.56-.67-3.25-1.88l-27.13-46.98c-1.04-1.79-.42-4.09 1.37-5.12 1.79-1.03 4.09-.42 5.12 1.37l27.13 46.98c1.04 1.79.42 4.09-1.37 5.12-.59.34-1.24.5-1.87.5zm45.47-45.47c-.64 0-1.28-.16-1.87-.5l-46.98-27.13c-1.79-1.04-2.41-3.33-1.37-5.12 1.03-1.79 3.33-2.41 5.12-1.37l46.98 27.13c1.79 1.04 2.41 3.33 1.37 5.12-.69 1.2-1.96 1.88-3.25 1.88zm16.65-62.13H454c-2.07 0-3.75-1.68-3.75-3.75 0-2.07 1.68-3.75 3.75-3.75h54.25c2.07 0 3.75 1.68 3.75 3.75 0 2.07-1.68 3.75-3.75 3.75zm-63.62-35c-1.3 0-2.56-.67-3.25-1.88-1.04-1.79-.42-4.09 1.37-5.12l46.98-27.13c1.79-1.04 4.09-.42 5.12 1.37 1.04 1.79.42 4.09-1.37 5.12l-46.98 27.13c-.59.34-1.24.5-1.87.5zM419 327.13c-.64 0-1.28-.16-1.87-.5-1.79-1.04-2.41-3.33-1.37-5.12l27.13-46.98c1.03-1.79 3.33-2.41 5.12-1.37s2.41 3.33 1.37 5.12l-27.13 46.98c-.69 1.2-1.95 1.88-3.25 1.88zm-35-9.38c-2.07 0-3.75-1.68-3.75-3.75v-54.25c0-2.07 1.68-3.75 3.75-3.75 2.07 0 3.75 1.68 3.75 3.75V314c0 2.07-1.68 3.75-3.75 3.75zm-35 9.38c-1.3 0-2.56-.67-3.25-1.88l-27.13-46.98c-1.04-1.79-.42-4.09 1.37-5.12 1.79-1.04 4.09-.42 5.12 1.37l27.13 46.98c1.04 1.79.42 4.09-1.37 5.12-.59.34-1.24.5-1.87.5zm-25.63 25.62c-.64 0-1.28-.16-1.87-.5l-46.98-27.13c-1.79-1.04-2.41-3.33-1.37-5.12 1.03-1.79 3.33-2.41 5.12-1.37l46.98 27.13c1.79 1.04 2.41 3.33 1.37 5.12-.69 1.2-1.96 1.88-3.25 1.88zm-9.37 35h-54.25c-2.07 0-3.75-1.68-3.75-3.75 0-2.07 1.68-3.75 3.75-3.75H314c2.07 0 3.75 1.68 3.75 3.75 0 2.07-1.68 3.75-3.75 3.75zm-37.6 62.13c-1.3 0-2.56-.67-3.25-1.88-1.04-1.79-.42-4.09 1.37-5.12l46.98-27.13c1.79-1.04 4.09-.42 5.12 1.37 1.04 1.79.42 4.09-1.37 5.12l-46.98 27.13c-.59.34-1.24.5-1.87.5zm45.47 45.47c-.64 0-1.28-.16-1.87-.5-1.79-1.04-2.41-3.33-1.37-5.12l27.13-46.98c1.04-1.79 3.33-2.41 5.12-1.37s2.41 3.33 1.37 5.12l-27.13 46.98c-.69 1.2-1.95 1.88-3.25 1.88z"/>
    <path fill="#ff3187" d="M414 390.25c0 16.57-13.43 30-30 30V344l22.83 26.8c4.47 5.24 7.17 12.03 7.17 19.45z"/>
    <path fill="#ff5178" d="M384 420.25c-16.57 0-30-13.43-30-30 0-7.42 2.7-14.21 7.17-19.45L384 344l11.42 26.8c2.23 5.24 3.58 12.03 3.58 19.45 0 16.57-6.72 30-15 30z"/>
    <path d="M384 424c-18.61 0-33.75-15.14-33.75-33.75 0-8.01 2.86-15.78 8.06-21.88 1.34-1.58 3.71-1.76 5.29-.42s1.76 3.71.42 5.29c-4.04 4.74-6.27 10.79-6.27 17.02 0 14.47 11.78 26.25 26.25 26.25s26.25-11.78 26.25-26.25c0-6.23-2.23-12.27-6.27-17.02L384 349.79l-10.25 12.03c-1.34 1.58-3.71 1.77-5.29.42-1.58-1.34-1.77-3.71-.42-5.29l13.1-15.38c.71-.84 1.76-1.32 2.85-1.32 1.1 0 2.14.48 2.85 1.32l22.83 26.8c5.2 6.1 8.06 13.87 8.06 21.88 0 18.61-15.14 33.75-33.75 33.75z"/>
  </g>
</svg>