<svg xmlns="http://www.w3.org/2000/svg" viewBox="0 0 512.07 512.07">
  <path fill="#dd8858" d="M358.013 135.155c-1.98-8.767-6.048-16.711-11.658-23.296l-9.03-3.174h-164.25l-7.343 3.174c-5.611 6.585-9.679 14.529-11.659 23.296l-28.324 125.432 2.326 9.424s40.103 42.833 127.968 42.833 127.198-43 127.198-43l3.095-9.257z"/>
  <path fill="#da7e4a" d="M165.732 111.858c-5.611 6.585-9.679 14.529-11.659 23.296l-28.324 125.432 2.326 9.424s12.78 13.646 39.71 25.533l35.79-175.494-16.603-11.365h-13.897z"/>
  <path fill="#e39b74" d="M492.948 268.081c-6.53-6.856-17.022-7.98-24.913-2.749-17.432 11.557-42.711 25.103-76.691 35.918l-9.019 2.26s-57.75 45.25-126.282 45.25-129.718-47.51-129.718-47.51h-5.583c-33.98-10.815-59.258-24.362-76.69-35.918-7.891-5.232-18.383-4.107-24.913 2.749-14.83 15.571-15.518 39.823-1.594 56.21l19.386 22.815c42.712 50.266 105.344 79.236 171.306 79.236h95.613c65.961 0 128.594-28.97 171.306-79.236l19.386-22.815c13.923-16.387 13.236-40.639-1.594-56.21z"/>
  <path fill="#dd8858" d="m131.431 371.606-19.386-22.815c-12.531-14.748-13.22-35.863-2.423-51.291-28.43-10.091-50.098-21.911-65.57-32.167-7.891-5.232-18.383-4.107-24.913 2.749-14.83 15.571-15.518 39.823-1.594 56.21l19.386 22.815c41.023 48.278 100.424 76.895 163.5 79.084-26.072-13.327-49.596-31.75-69-54.585z"/>
  <path fill="#da7e4a" d="M284.282 143.042c3.693-1.233 7.464-2.225 11.31-2.832 22.296-3.515 39.397-16.698 50.763-28.352-7.394-8.679-17.471-14.994-29.005-17.696l-10.563-2.474c-33.378-7.819-68.11-7.819-101.488 0l-10.563 2.474c-11.533 2.703-21.61 9.018-29.005 17.696 11.366 11.654 28.467 24.837 50.763 28.352 3.846.606 7.617 1.599 11.31 2.832 4.996 1.668 11.375 4.248 17.244 7.956 6.912 4.368 15.069 4.374 21.99 0 5.869-3.708 12.248-6.288 17.244-7.956z"/>
  <path fill="#cb6c35" d="M222.985 88.308c-5.927.891-11.828 2.008-17.686 3.38l-10.563 2.474c-11.533 2.703-21.61 9.018-29.005 17.696 11.366 11.654 28.467 24.837 50.763 28.352 3.441.543 6.819 1.406 10.138 2.463-16.607-12.719-16.842-40.435-3.647-54.365z"/>
  <path fill="#9d5e5e" d="M386.337 260.587c-40.839 46.716-130.285 46.719-130.294 46.719-.008 0-89.455-.003-130.294-46.719l-6.246 27.658c-1.427 6.321.161 12.931 4.244 17.963 39.835 49.089 132.287 49.091 132.295 49.091.009 0 92.461-.002 132.295-49.091 4.083-5.031 5.672-11.642 4.244-17.963z"/>
  <path fill="#865151" d="M168.905 290.053c-16.19-6.795-31.614-16.264-43.155-29.467l-6.246 27.658c-1.427 6.321.161 12.931 4.244 17.963 9.661 11.906 22.421 20.917 36.203 27.749z"/>
  <path d="M463.881 259.056c-18.611 12.339-39.904 22.796-63.418 31.173-.115-1.222-.3-2.444-.574-3.661l-6.245-27.659c0-.002-.001-.004-.002-.007L365.32 133.477c-5.038-22.314-22.401-41.051-46.268-46.643-35.532-8.323-70.245-13.068-115.473-2.474-11.008 2.578-12.077 2.779-14.882 3.657-21.451 6.665-37.175 24.321-41.948 45.46l-34.571 153.091c-.275 1.217-.459 2.439-.574 3.66-23.514-8.377-44.806-18.834-63.417-31.172-10.957-7.264-25.461-5.652-34.488 3.827-17.523 18.4-18.33 46.876-1.879 66.238l19.386 22.815c44.216 52.036 108.738 81.879 177.021 81.879h30.307c4.143 0 7.5-3.358 7.5-7.5s-3.357-7.5-7.5-7.5h-30.307c-63.874 0-124.229-27.917-165.59-76.592l-19.386-22.815c-11.471-13.499-10.907-33.353 1.309-46.181 4.006-4.205 10.457-4.906 15.338-1.67 21.965 14.562 47.383 26.617 75.586 35.854.588 1 1.546 2.406 2.431 3.497 32.373 39.894 106.66 57.697 168.232 49.58 29.483-3.887 73.849-14.378 101.832-42.697 2.786-2.82 6.576-6.961 8.605-10.379 28.206-9.237 53.62-21.291 75.585-35.854 4.884-3.237 11.334-2.535 15.339 1.67 12.217 12.828 12.779 32.681 1.309 46.181l-19.385 22.815c-41.361 48.675-101.717 76.592-165.591 76.592h-30.307c-4.143 0-7.5 3.358-7.5 7.5s3.357 7.5 7.5 7.5h30.307c68.283 0 132.806-29.844 177.021-81.879l19.386-22.815c16.452-19.363 15.645-47.839-1.879-66.238-9.028-9.481-23.53-11.09-34.488-3.828zM219.109 96.499c24.359-4.227 49.491-4.227 73.851 0 25.78 4.474 34.288 7.916 42.694 15.232-12.915 11.691-26.759 18.763-41.237 21.045-4.019.633-8.113 1.656-12.519 3.126h-.001c-7.117 2.377-13.468 5.314-18.874 8.73-4.441 2.807-9.534 2.807-13.978 0-5.406-3.417-11.757-6.354-18.875-8.73-4.403-1.471-8.498-2.493-12.517-3.126-14.479-2.282-28.323-9.354-41.238-21.045 8.229-7.161 16.071-10.612 42.694-15.232zM380.73 303.566c-33.222 38.074-102.81 43.362-120.525 44.091-20.598.847-95.203-5.512-128.866-44.092-1.763-2.019-6.144-6.532-4.529-13.693l3.273-14.493c31.965 27.513 80.161 35.866 107.769 38.389 4.132.387 7.774-2.662 8.151-6.786.377-4.125-2.661-7.774-6.786-8.151-27.589-2.522-77.187-11.137-105.297-40.447l27.46-121.603c1.09-4.827 2.94-9.382 5.41-13.532 14.985 13.445 31.274 21.624 48.528 24.344 8.182 1.289 18.551 5.193 25.715 9.72 9.392 5.935 20.609 5.936 30.002 0 7.169-4.529 17.536-8.431 25.716-9.72 17.253-2.72 33.542-10.9 48.527-24.344 2.471 4.15 4.32 8.705 5.41 13.532l27.459 121.604c-28.111 29.31-77.707 37.924-105.296 40.446-4.125.377-7.163 4.026-6.786 8.151.376 4.125 4.011 7.167 8.151 6.786 27.607-2.523 75.803-10.876 107.769-38.389l3.272 14.492c1.545 6.839-2.216 11.046-4.527 13.695z"/>
<g id="Wheel">
    <path fill="#622876" d="M446.13 486.2v5.42c-18.28 10.58-39.5 16.63-62.13 16.63l62.13-22.05z"/>
    <path fill="#962b7c" d="M446.13 384v102.2c-17.64 13.9-39.05 22.05-62.13 22.05l-29.12-50.96L384 384h62.13z"/>
    <path fill="#2d2570" d="M491.62 405.48v40.65c-10.91 18.86-26.63 34.58-45.49 45.49l-2.17-3.75 47.65-82.38z"/>
    <path fill="#622876" d="M491.62 405.48c-5.27 34.39-22.98 63.92-47.65 82.38L384 383.99h107.62v21.48z"/>
    <path fill="#0556b2" d="M508.25 384c0 22.64-6.06 43.86-16.63 62.13l-10.18-5.88 11.54-64.98 15.27 8.73z"/>
    <path fill="#077ccc" d="M492.98 375.27c.18 2.88.27 5.79.27 8.73 0 20.25-4.26 39.36-11.82 56.25L384 384l73.29-29.12 35.69 20.39z"/>
    <path fill="#077ccc" d="M491.62 321.87c10.58 18.28 16.63 39.5 16.63 62.13h-15l-14.62-62.13h12.99z"/>
    <path fill="#09a1e5" d="M478.63 321.87c9.3 18.28 14.62 39.5 14.62 62.13H384l14.56-62.13h80.07z"/>
    <path fill="#2897b1" d="M446.13 276.38c18.86 10.91 34.58 26.63 45.49 45.48l-10.18 5.88-42.8-51.36h7.5z"/>
    <path fill="#49b296" d="M438.63 276.38c18.27 12.03 33.2 29.9 42.8 51.37L384 384l14.56-107.62h40.07z"/>
    <path fill="#49b296" d="m446.13 276.38-2.17 3.75-59.97-20.38c22.64 0 43.86 6.06 62.13 16.63z"/>
    <path fill="#89c247" d="M384 259.75c22.15 0 42.75 7.5 59.97 20.38L384 384l-29.12-73.29L384 259.75z"/>
    <path fill="#cb2e81" d="M321.87 384H384v124.25c-22.64 0-43.86-6.06-62.13-16.63V384z"/>
    <path fill="#ff3187" d="M276.38 384H384l-62.13 107.62c-18.85-10.91-34.58-26.63-45.49-45.49V384z"/>
    <path fill="#ff5178" d="M310.71 354.88 384 384l-107.62 62.13c-10.58-18.28-16.63-39.5-16.63-62.13l50.96-29.12z"/>
    <path fill="#ff9259" d="M369.44 321.87 384 384H259.75c0-22.64 6.06-43.86 16.63-62.13h93.06z"/>
    <path fill="#ffb24a" d="M369.44 276.38 384 384l-107.62-62.13c10.91-18.85 26.63-34.58 45.49-45.49h47.57z"/>
    <path fill="#ffd23b" d="m384 384-62.13-107.62c18.28-10.58 39.5-16.63 62.13-16.63V384z"/>
    <path fill="#fff0be" d="M454 384c0 38.66-31.34 70-70 70V314c38.66 0 70 31.34 70 70z"/>
    <path fill="#fff" d="M384 454c-38.66 0-70-31.34-70-70s31.34-70 70-70c30.38 0 55 31.34 55 70s-24.62 70-55 70z"/>
    <path fill-rule="evenodd" d="M293.49 474.51C269.31 450.33 256 418.19 256 384c0-34.19 13.31-66.33 37.49-90.51C317.67 269.31 349.81 256 384 256c34.19 0 66.33 13.31 90.51 37.49C498.69 317.67 512 349.81 512 384c0 34.19-13.31 66.33-37.49 90.51C450.33 498.69 418.19 512 384 512c-34.19 0-66.33-13.31-90.51-37.49zM384 263.5c-66.44 0-120.5 54.06-120.5 120.5S317.56 504.5 384 504.5 504.5 450.44 504.5 384 450.44 263.5 384 263.5z"/>
    <path fill-rule="evenodd" d="M384 457.75c-40.67 0-73.75-33.08-73.75-73.75s33.08-73.75 73.75-73.75 73.75 33.08 73.75 73.75-33.08 73.75-73.75 73.75zm0-140c-36.53 0-66.25 29.72-66.25 66.25s29.72 66.25 66.25 66.25 66.25-29.72 66.25-66.25-29.72-66.25-66.25-66.25z"/>
    <path d="M384 512c-2.07 0-3.75-1.68-3.75-3.75V454c0-2.07 1.68-3.75 3.75-3.75 2.07 0 3.75 1.68 3.75 3.75v54.25c0 2.07-1.68 3.75-3.75 3.75zm62.13-16.65c-1.3 0-2.56-.67-3.25-1.88l-27.13-46.98c-1.04-1.79-.42-4.09 1.37-5.12 1.79-1.03 4.09-.42 5.12 1.37l27.13 46.98c1.04 1.79.42 4.09-1.37 5.12-.59.34-1.24.5-1.87.5zm45.47-45.47c-.64 0-1.28-.16-1.87-.5l-46.98-27.13c-1.79-1.04-2.41-3.33-1.37-5.12 1.03-1.79 3.33-2.41 5.12-1.37l46.98 27.13c1.79 1.04 2.41 3.33 1.37 5.12-.69 1.2-1.96 1.88-3.25 1.88zm16.65-62.13H454c-2.07 0-3.75-1.68-3.75-3.75 0-2.07 1.68-3.75 3.75-3.75h54.25c2.07 0 3.75 1.68 3.75 3.75 0 2.07-1.68 3.75-3.75 3.75zm-63.62-35c-1.3 0-2.56-.67-3.25-1.88-1.04-1.79-.42-4.09 1.37-5.12l46.98-27.13c1.79-1.04 4.09-.42 5.12 1.37 1.04 1.79.42 4.09-1.37 5.12l-46.98 27.13c-.59.34-1.24.5-1.87.5zM419 327.13c-.64 0-1.28-.16-1.87-.5-1.79-1.04-2.41-3.33-1.37-5.12l27.13-46.98c1.03-1.79 3.33-2.41 5.12-1.37s2.41 3.33 1.37 5.12l-27.13 46.98c-.69 1.2-1.95 1.88-3.25 1.88zm-35-9.38c-2.07 0-3.75-1.68-3.75-3.75v-54.25c0-2.07 1.68-3.75 3.75-3.75 2.07 0 3.75 1.68 3.75 3.75V314c0 2.07-1.68 3.75-3.75 3.75zm-35 9.38c-1.3 0-2.56-.67-3.25-1.88l-27.13-46.98c-1.04-1.79-.42-4.09 1.37-5.12 1.79-1.04 4.09-.42 5.12 1.37l27.13 46.98c1.04 1.79.42 4.09-1.37 5.12-.59.34-1.24.5-1.87.5zm-25.63 25.62c-.64 0-1.28-.16-1.87-.5l-46.98-27.13c-1.79-1.04-2.41-3.33-1.37-5.12 1.03-1.79 3.33-2.41 5.12-1.37l46.98 27.13c1.79 1.04 2.41 3.33 1.37 5.12-.69 1.2-1.96 1.88-3.25 1.88zm-9.37 35h-54.25c-2.07 0-3.75-1.68-3.75-3.75 0-2.07 1.68-3.75 3.75-3.75H314c2.07 0 3.75 1.68 3.75 3.75 0 2.07-1.68 3.75-3.75 3.75zm-37.6 62.13c-1.3 0-2.56-.67-3.25-1.88-1.04-1.79-.42-4.09 1.37-5.12l46.98-27.13c1.79-1.04 4.09-.42 5.12 1.37 1.04 1.79.42 4.09-1.37 5.12l-46.98 27.13c-.59.34-1.24.5-1.87.5zm45.47 45.47c-.64 0-1.28-.16-1.87-.5-1.79-1.04-2.41-3.33-1.37-5.12l27.13-46.98c1.04-1.79 3.33-2.41 5.12-1.37s2.41 3.33 1.37 5.12l-27.13 46.98c-.69 1.2-1.95 1.88-3.25 1.88z"/>
    <path fill="#ff3187" d="M414 390.25c0 16.57-13.43 30-30 30V344l22.83 26.8c4.47 5.24 7.17 12.03 7.17 19.45z"/>
    <path fill="#ff5178" d="M384 420.25c-16.57 0-30-13.43-30-30 0-7.42 2.7-14.21 7.17-19.45L384 344l11.42 26.8c2.23 5.24 3.58 12.03 3.58 19.45 0 16.57-6.72 30-15 30z"/>
    <path d="M384 424c-18.61 0-33.75-15.14-33.75-33.75 0-8.01 2.86-15.78 8.06-21.88 1.34-1.58 3.71-1.76 5.29-.42s1.76 3.71.42 5.29c-4.04 4.74-6.27 10.79-6.27 17.02 0 14.47 11.78 26.25 26.25 26.25s26.25-11.78 26.25-26.25c0-6.23-2.23-12.27-6.27-17.02L384 349.79l-10.25 12.03c-1.34 1.58-3.71 1.77-5.29.42-1.58-1.34-1.77-3.71-.42-5.29l13.1-15.38c.71-.84 1.76-1.32 2.85-1.32 1.1 0 2.14.48 2.85 1.32l22.83 26.8c5.2 6.1 8.06 13.87 8.06 21.88 0 18.61-15.14 33.75-33.75 33.75z"/>
  </g>
  </svg>