<svg xmlns="http://www.w3.org/2000/svg" xml:space="preserve" viewBox="0 0 512 512">
  <path fill="#d1eff2" d="M256 130.246c109.138 0 199.851 67.317 242.28 110.438 8.373 8.509 8.373 22.121 0 30.63C455.851 314.435 365.138 381.753 256 381.753S56.15 314.435 13.721 271.314c-8.373-8.509-8.373-22.121 0-30.63C56.15 197.563 146.862 130.246 256 130.246z"/>
  <circle cx="256.001" cy="256" r="125.75" fill="#76b7eb"/>
  <path d="M190.937 148.366c-36.378 22.037-60.69 61.995-60.69 107.633 0 69.452 56.301 125.753 125.753 125.753 29.998 0 57.537-10.509 79.151-28.04-191.149 46.405-204.903-137.001-144.214-205.346z" opacity=".1"/>
  <circle cx="256.001" cy="256" r="61.605" fill="#38648c"/>
  <circle cx="316.396" cy="223.042" r="29.097" fill="#fff"/>
  <path d="M18.148 236.272C60.356 210.211 154.601 155.981 256 155.981s195.644 54.23 237.852 80.291C449.751 193.129 361.484 130.246 256 130.246S62.249 193.129 18.148 236.272z" opacity=".15"/>
  <path d="M333.405 326.463a7.468 7.468 0 0 1-4.729-1.682l-8.888-7.23c-3.215-2.615-3.7-7.339-1.086-10.554s7.339-3.701 10.553-1.086l8.888 7.23a7.502 7.502 0 0 1-4.738 13.322zm18.042-33.858a7.517 7.517 0 0 1-2.191-.328l-10.958-3.341a7.5 7.5 0 0 1-4.987-9.363 7.5 7.5 0 0 1 9.363-4.987l10.958 3.341a7.5 7.5 0 0 1-2.185 14.678zm-104.623 70.254a7.501 7.501 0 0 1-7.478-8.192l1.054-11.408a7.501 7.501 0 1 1 14.939 1.38l-1.054 11.408a7.5 7.5 0 0 1-7.461 6.812zm-87.485-74.575a7.504 7.504 0 0 1-1.859-14.77l11.098-2.846a7.502 7.502 0 0 1 3.726 14.533l-11.098 2.846a7.456 7.456 0 0 1-1.867.237zm49.63-99.541a7.495 7.495 0 0 1-6.357-3.508l-6.101-9.696a7.501 7.501 0 1 1 12.699-7.989l6.101 9.696a7.5 7.5 0 0 1-2.355 10.344 7.452 7.452 0 0 1-3.987 1.153zm87.92-3.529a7.502 7.502 0 0 1-6.644-10.976l5.304-10.154a7.502 7.502 0 0 1 13.298 6.945l-5.304 10.154a7.498 7.498 0 0 1-6.654 4.031z" opacity=".1"/>
  <path d="M503.627 235.422a345.342 345.342 0 0 0-7.779-7.654 7.502 7.502 0 0 0-10.355 10.859 325.772 325.772 0 0 1 7.438 7.319c5.455 5.543 5.455 14.563 0 20.108-15.241 15.489-47.758 45.183-94.309 70.033-20.571 10.981-41.244 19.611-61.911 25.868 31.913-24.368 52.544-62.794 52.544-105.954 0-43.075-20.551-81.435-52.356-105.81 54.173 16.484 97.442 45.811 122.612 65.842a7.502 7.502 0 0 0 9.343-11.74C430.585 173.838 352.045 122.747 256 122.747c-49.688 0-100.05 13.435-149.688 39.933-48.311 25.788-82.098 56.646-97.938 72.745-11.165 11.346-11.165 29.807 0 41.154 9.64 9.797 25.728 24.859 47.624 40.967a7.476 7.476 0 0 0 4.439 1.459 7.502 7.502 0 0 0 4.451-13.545c-21.101-15.522-36.565-29.995-45.822-39.403-5.455-5.543-5.455-14.563 0-20.108 15.241-15.489 47.758-45.183 94.309-70.033 20.571-10.981 41.244-19.611 61.911-25.868-31.912 24.365-52.543 62.792-52.543 105.952 0 43.05 20.527 81.391 52.3 105.768-27.488-8.336-54.925-20.766-81.538-37.063a7.501 7.501 0 1 0-7.836 12.795c55.292 33.858 114.191 51.754 170.329 51.754 49.688 0 100.05-13.435 149.688-39.932 48.311-25.789 82.098-56.647 97.938-72.746 11.167-11.346 11.167-29.807.003-41.154zm-365.879 20.577c0-65.204 53.048-118.251 118.252-118.251s118.252 53.048 118.252 118.251S321.205 374.25 256 374.25s-118.252-53.047-118.252-118.251zm215.243-32.956c0-20.178-16.416-36.594-36.594-36.594-9.754 0-18.622 3.844-25.19 10.087-10.631-6.324-22.668-9.648-35.206-9.648-38.108 0-69.11 31.002-69.11 69.109s31.002 69.109 69.11 69.109c37.237 0 67.672-29.606 69.044-66.513 16.016-3.895 27.946-18.351 27.946-35.55zM256 310.105c-29.834 0-54.107-24.272-54.107-54.106s24.273-54.106 54.107-54.106c9.458 0 18.555 2.407 26.648 7.009a36.39 36.39 0 0 0-2.846 14.142c0 18 13.067 32.996 30.211 36.026-1.596 28.409-25.209 51.035-54.013 51.035zm60.397-65.471c-11.905 0-21.59-9.685-21.59-21.59s9.685-21.59 21.59-21.59 21.59 9.685 21.59 21.59-9.685 21.59-21.59 21.59z"/>
</svg>