<svg xmlns="http://www.w3.org/2000/svg" viewBox="0 0 48 48">
  <g data-name="08-eye brow">
    <path fill="#ffca6b" d="M33 22v-2a16 16 0 0 0-32 0v24h32V22"/>
    <path fill="#fccaad" d="M29 20c-18 0-18-6-18-6 0 6-6 6-6 6v8a12 12 0 0 0 12 12 12 12 0 0 0 12-12Z"/>
    <path fill="#f17a7d" d="M46.32 36.02a2.333 2.333 0 0 1-3.3 3.3l-7.07-7.07 3.3-3.3Z"/>
    <path fill="#c1cad4" d="m39.25 28.95-3.3 3.3-1.1-1.1-2.2-2.2 3.3-3.3 3.3 3.3z"/>
    <path fill="#7c8691" d="m35.95 25.65-3.3 3.3L31 24l1.2.4 3.75 1.25z"/>
    <circle cx="23" cy="28" r="2" fill="#f2f2f2"/>
    <circle cx="11" cy="28" r="2" fill="#f2f2f2"/>
    <path fill="#282d33" d="M32 43H2V20a15 15 0 0 1 30 0v2h2v-2a17 17 0 0 0-34 0v24a1 1 0 0 0 1 1h32a1 1 0 0 0 1-1V33h-2Z"/>
    <path fill="#282d33" d="M29 19c-16.431 0-17-4.985-17-5a1 1 0 0 0-2 0c0 4.824-4.492 5-5 5a1 1 0 0 0-1 1v8a13 13 0 1 0 26 0h-2a11 11 0 0 1-22 0v-7.074a6.751 6.751 0 0 0 5.489-4.033C13.485 18.828 18.144 21 29 21Z"/>
    <path fill="#282d33" d="m47.027 35.313-10.37-10.37a.99.99 0 0 0-.394-.231v-.011l-4.951-1.65a1.008 1.008 0 0 0-.312-.046H20v2h10.279l1.421 4.262h.011a.99.99 0 0 0 .231.394l10.37 10.37a3.333 3.333 0 0 0 4.714-4.714ZM34.1 26.087 33.087 27.1l-.506-1.518Zm1.851.977 1.886 1.886-1.887 1.886-1.886-1.886Zm9.662 11.549a1.368 1.368 0 0 1-1.885 0l-6.364-6.363 1.886-1.886 6.363 6.363a1.336 1.336 0 0 1 0 1.886ZM14 23H8v2h6v-2zm-6 5a3 3 0 1 0 3-3 3 3 0 0 0-3 3Zm3-1a1 1 0 1 1-1 1 1 1 0 0 1 1-1Z"/>
    <path fill="#282d33" d="M20 28a3 3 0 1 0 3-3 3 3 0 0 0-3 3Zm3-1a1 1 0 1 1-1 1 1 1 0 0 1 1-1Zm18-3v2h2v2h2v-2h2v-2h-2v-2h-2v2h-2zm-3-3h2v-2h2v-2h-2v-2h-2v2h-2v2h2v2z"/>
  </g>
</svg>