<svg xmlns="http://www.w3.org/2000/svg" xml:space="preserve" viewBox="0 0 512 512">
  <path fill="#996123" d="M488.946 207.391c-.535-.761-.841-1.655-.849-2.585 9.142-80.826-48.107-130.335-74.749-148.743-4.077-2.817-9.416 1.152-7.894 5.868 1.617 5.01 3.121 10.318 4.52 15.804 1.149 4.507-4.021 7.939-7.714 5.111-23.696-18.148-86.358-56.055-198.535-58.315-3.083-.062-4.405 3.893-1.9 5.691 4.001 2.87 9.215 6.837 15.273 11.965 3.152 2.667 1.728 7.8-2.347 8.466-87.472 14.288-113.26 78.086-201.231 49.108-3.019-.994-6.106 1.303-6.022 4.48.581 22.09 6.974 98.437 77.531 108.407 110.656 15.636 39.667 55.18 87.322 108.961 2.482 2.802 7.403 6.18 10.898 7.52 19.602 7.516 26.359 17.778 34.754 56.283 1.036 4.749 7.767 4.861 8.946.145 11.435-45.739 35.164-94.828 81.984-87.822 37.921 5.082 58.243 47.098 39.483 79.893-.382 2.956-.713 4.682-.713 4.682s-5.598 38.324 31.004 74.927c11.15 11.15 18.22 20.379 22.666 27.826.819 1.372 2.253 2.341 3.85 2.406 2.416.099 4.471-1.684 4.75-4.064 3.127-26.689 11.142-66.852 31.604-87.315 32.088-32.091 90.956-126.664 47.369-188.699z"/>
  <path fill="#89521a" d="M200.45 300.607c-47.655-53.781 23.334-93.323-87.322-108.961-54.276-7.67-70.58-54.614-75.48-85.927-7.527-1.193-15.525-3.128-24.124-5.96-3.019-.994-6.106 1.303-6.022 4.48.581 22.09 6.974 98.437 77.531 108.407 110.656 15.636 39.667 55.18 87.322 108.961 2.482 2.802 7.403 6.18 10.898 7.521 19.602 7.516 26.359 17.778 34.754 56.283 1.036 4.749 7.767 4.861 8.946.145 3.113-12.453 7.688-27.167 14.211-40.986-11.798-40.08-28.532-30.215-40.714-43.963zm204.794 134.037c-14.725-19.418-22.023-39.379-24.007-59.658-.21-2.149-.03-4.324.59-6.393 11.091-37.034-3.478-61.746-3.478-61.746-8.86-18.512-24.533-24.924-24.645-25.005-.415-.206-.834-.403-1.254-.598-58.877-28.218-100.894 44.968-100.905 44.987 37.399-54.554 103.949-26.218 103.949 24.769 0 9.694-2.587 18.772-7.077 26.623-.382 2.956-.713 4.683-.713 4.683s-5.598 38.324 31.004 74.927c11.146 11.146 18.215 20.372 22.661 27.818.723 1.211 1.899 2.134 3.292 2.357 2.653.426 5.012-1.444 5.312-4.007 1.26-10.757 3.317-23.702 6.66-36.664-5.202-5.984-9.348-9.98-11.389-12.093z"/>
  <path d="M417.611 49.894c-9.983-6.9-23.014 2.815-19.295 14.341.839 2.6 1.669 5.353 2.482 8.235-12.41-8.747-31.248-19.921-57.272-29.977-3.864-1.496-8.207.431-9.699 4.293-1.493 3.864.43 8.206 4.293 9.699 28.999 11.205 48.406 23.757 59.58 32.314 9.338 7.155 22.446-1.516 19.54-12.914-.854-3.355-1.735-6.594-2.636-9.686 26.364 19.672 74.17 65.875 66.04 137.763-.035.304-.051.608-.048.914.023 2.44.789 4.803 2.213 6.826 23.958 34.101 13.087 77.907-.251 108.651-1.648 3.801.096 8.217 3.896 9.866 3.81 1.649 8.219-.101 9.866-3.896 26.554-61.21 14.54-100.183-.594-122.316 8.693-84.34-51.638-135.821-78.115-154.113zM83.981 220.072c28.768 4.065 46.613 10.054 54.559 18.307 16.048 16.669-6.413 49.141 28.2 88.199 3.249 3.668 9.193 7.774 13.826 9.551 15.062 5.775 21.56 11.658 30.111 50.879 2.724 12.489 20.451 12.766 23.55.366 7.732-30.935 26.492-82.828 65.249-82.828 29.686 0 48.518 22.447 48.518 46.456 0 15.306-6.497 21.66-7.016 25.662-.48 3.726-2.751 13.475 1.185 31.022 5.644 25.156 20.104 43.713 31.242 54.852 9.532 9.531 16.775 18.402 21.53 26.368 2.165 3.625 5.898 5.889 9.98 6.053 6.292.259 11.776-4.446 12.507-10.684 2.647-22.602 9.996-63.423 29.459-82.885 10.75-10.751 22.705-26.447 32.801-43.066 2.15-3.54 1.023-8.153-2.517-10.304-3.541-2.15-8.154-1.024-10.304 2.517-9.5 15.638-20.648 30.309-30.587 40.246-19.697 19.696-28.662 55.052-32.734 83.875-5.049-7.173-11.592-14.789-19.529-22.728-19.15-19.149-32.07-45.503-28.353-71.901 21.185-39.259-5.438-90.482-56.184-90.482-21.812 0-40.469 11.587-55.454 34.437-8.497 12.955-15.646 29.257-21.314 48.566-7.936-31.602-16.52-42.66-36.771-50.426-2.417-.927-6.29-3.595-7.97-5.491-43.591-49.195 23.94-95.047-91.886-111.411-47.95-6.777-68.428-48.833-70.922-97.075 88.298 26.911 116.833-36.376 200.805-50.094 10.39-1.697 14.02-14.789 5.982-21.592-1.604-1.357-3.207-2.683-4.802-3.972 31.352 1.495 60.978 5.968 88.234 13.328 3.995 1.078 8.116-1.286 9.195-5.285 1.08-3.998-1.286-8.115-5.285-9.195-32.336-8.734-67.802-13.546-105.41-14.304-10.449-.218-14.883 13.215-6.425 19.28 3.39 2.434 6.872 5.096 10.396 7.949-85.311 16.422-109.295 75.607-191.978 48.374-7.933-2.617-16.087 3.44-15.864 11.8 1.495 57.07 26.978 107.581 83.976 115.636z"/>
</svg>