<svg xmlns="http://www.w3.org/2000/svg" viewBox="0 0 512 512">
  <path fill="#dd646e" d="m478.863 233.043-45.109-132.536a10.002 10.002 0 0 0-5.57-5.988L338.81 56.703l-165.625.002-89.369 37.814a10 10 0 0 0-5.57 5.988L33.138 233.043c-1.864 5.476 1.294 11.387 6.882 12.882l68.62 18.363v229.71c0 5.523 4.477 10 10 10h274.723c5.523 0 10-4.477 10-10v-229.71l68.62-18.363c5.586-1.495 8.744-7.406 6.88-12.882z"/>
  <path fill="#db4955" d="M393.361 485.998H118.639c-5.523 0-10-4.477-10-10v18c0 5.523 4.477 10 10 10h274.723c5.523 0 10-4.477 10-10v-18c-.001 5.522-4.478 10-10.001 10zM108.639 246.287l-68.62-18.363a9.935 9.935 0 0 1-4.313-2.427l-2.568 7.545c-1.864 5.476 1.294 11.387 6.882 12.882l68.62 18.363v-18zm367.655-20.789a9.931 9.931 0 0 1-4.313 2.427l-68.62 18.363v18l68.62-18.363c5.588-1.495 8.746-7.406 6.882-12.882z"/>
  <path fill="#eef1f3" d="M324.008 374.016h.006c5.972 18.492 27.075 15.615 27.075 15.615s9.214-19.202-6.553-30.56c19.432.068 23.253-20.885 23.253-20.885s-15.389-14.723-31.084-3.265c6.059-18.464-12.694-28.561-12.694-28.561s-18.752 10.097-12.694 28.561c-15.695-11.459-31.084 3.265-31.084 3.265s3.82 20.953 23.253 20.885c-15.767 11.359-6.553 30.56-6.553 30.56s21.103 2.877 27.075-15.615h.006zM188.745 243.564h.006c5.972 18.492 27.075 15.615 27.075 15.615s9.214-19.202-6.553-30.56c19.432.068 23.253-20.885 23.253-20.885s-15.39-14.723-31.084-3.265c6.058-18.464-12.694-28.561-12.694-28.561s-18.752 10.097-12.694 28.561c-15.695-11.459-31.084 3.265-31.084 3.265s3.82 20.953 23.253 20.885c-15.767 11.359-6.553 30.56-6.553 30.56s21.103 2.877 27.075-15.615h.006zM234.68 481.37s-3.28 17.97-18.62 22.63h-62.25c-15.34-4.66-18.62-22.63-18.62-22.63s17.49-16.73 35.32-3.71c-6.88-20.98 14.43-32.45 14.43-32.45s21.3 11.47 14.42 32.45c17.83-13.02 35.32 3.71 35.32 3.71z"/>
  <path fill="#dee7ed" d="M136.536 485.998c2.066 5.654 6.921 14.857 17.275 18.002h62.25c10.353-3.145 15.209-12.348 17.274-18.002z"/>
  <path fill="#eef1f3" d="M403.36 430.32V494c0 5.52-4.48 10-10 10h-72.31c-17.83-11.11-21.96-33.72-21.96-33.72s29.29-28.02 59.16-6.22c-11.53-35.13 24.15-54.35 24.15-54.35s13.21 7.12 20.96 20.61z"/>
  <path fill="#dee7ed" d="M393.361 485.998H304.89c3.362 6.319 8.491 13.224 16.16 18.002h72.31c5.52 0 10-4.48 10-10v-17.976c-.014 5.511-4.485 9.974-9.999 9.974z"/>
  <path fill="#eef1f3" d="M159.68 369.37c24.25 17.47 10.07 47.01 10.07 47.01s-32.45 4.42-41.64-24.02h-.01c-3.81 11.8-11.62 17.94-19.46 21.09V310.36c5.24-14.4 19.47-22.06 19.47-22.06s28.84 15.53 19.52 43.93c24.14-17.62 47.81 5.02 47.81 5.02s-5.88 32.23-35.76 32.12zM116.49 135.9c23.91 17.23 9.94 46.35 9.94 46.35s-32 4.36-41.06-23.68h-.01c-6.58 20.38-25.29 23.65-35.01 23.91l27.9-81.97a9.96 9.96 0 0 1 5.57-5.99l22.45-9.5c.46 4.3.05 9.06-1.65 14.26 23.8-17.37 47.13 4.95 47.13 4.95s-5.79 31.78-35.26 31.67zm311.694-41.381-23.661-10.011-.003.002c-.01-.01-.02-.01-.03-.01l-.024-.016-12.794-5.413h-.003c-.004-.004-.006-.003-.008-.004l-.015-.006c-16.069-2.508-29.187 10.05-29.187 10.05s5.2 28.49 31.63 28.4c-21.45 15.45-8.92 41.56-8.92 41.56s28.71 3.92 36.83-21.23h.01c5.98 18.52 23.11 21.27 31.74 21.44l-.001-.026-19.995-58.747a9.997 9.997 0 0 0-5.569-5.989z"/>
  <path fill="#b3495d" d="m200.363 8 55.634 170.446-59.773-52.78 9.489-28.006-30.204 1.82-2.324-42.774z"/>
  <path fill="#b3495d" d="m311.63 8-55.633 170.446 59.772-52.78-9.488-28.006 30.203 1.82 2.325-42.774z"/>
  <path fill="#9b3050" d="M311.63 8H200.363l12.196 37.365h86.876z"/>
  <path fill="#b3495d" d="m364.087 258.065-32.498 20.242-32.498-20.242v-52.577h64.996z"/>
  <path fill="#365e7d" d="M212.559 45.365h86.876l-43.438 133.081z"/>
  <path d="M486.413 230.578 441.216 97.781a17.559 17.559 0 0 0-9.766-10.498l-87.176-36.886-25.917-46.444C317.073 1.555 314.463-.01 311.74 0H200.254c-2.723-.01-5.333 1.555-6.617 3.953l-25.92 46.448L80.55 87.283a17.56 17.56 0 0 0-9.767 10.499l-7.926 23.289a7.514 7.514 0 0 0 4.694 9.535 7.502 7.502 0 0 0 2.422.403 7.52 7.52 0 0 0 7.114-5.095l7.925-23.288a2.509 2.509 0 0 1 1.396-1.501l10.798-4.569-.025.082a7.515 7.515 0 0 0 11.573 8.406c13.973-10.196 27.993-2.803 34.245 1.64-.847 2.48-2.228 5.79-4.353 9.075-5.394 8.338-12.68 12.392-22.272 12.392h-.156a7.516 7.516 0 0 0-4.394 13.611c14.051 10.125 11.359 25.779 9.075 33.096-7.681-.073-23.392-2.321-28.712-18.788a7.527 7.527 0 0 0-7.161-5.205 7.514 7.514 0 0 0-7.151 5.206c-2.038 6.309-6.62 13.597-16.817 16.932l6.306-18.529a7.513 7.513 0 0 0-4.693-9.535 7.516 7.516 0 0 0-9.534 4.693l-27.55 80.945c-3.371 9.263 2.493 20.24 12.066 22.588l63.182 16.908v224.392c0 9.668 7.866 17.534 17.534 17.534h275.262c9.668 0 17.534-7.866 17.534-17.534V348.258a7.515 7.515 0 1 0-15.03 0v62.151c-5.278-4.472-9.592-6.833-9.922-7.011a7.509 7.509 0 0 0-7.129-.001c-11.846 6.381-30.507 23.402-30.423 47.611-23.011-7.548-44.958 4.96-54.682 14.263a7.514 7.514 0 0 0-2.198 6.78c.135.739 2.513 13.155 10.892 24.919h-39.159V181.682l57.346-50.638a7.514 7.514 0 0 0 2.144-8.045l-5.922-17.475 19.108 1.151c4.054.327 7.81-3.043 7.956-7.093l1.749-32.179 21.365 9.04c-5.835 3.19-9.48 6.619-9.788 6.913a7.514 7.514 0 0 0-2.196 6.777c1.722 9.437 8.874 25.464 24.428 31.863-8.833 14.314-5.206 31.487-1.056 40.137 2.066 4.428 6.824 4.53 11.277 4.548 9.796-.001 23.358-3.071 32.401-13.701 6.232 7.375 15.272 11.972 26.313 13.259l23.546 69.183c.323 1.782-.061 2.505-1.723 3.226l-59.298 15.868v-54.121a7.515 7.515 0 1 0-15.03 0V318.2a7.515 7.515 0 1 0 15.03 0v-48.126l63.182-16.908c9.574-2.349 15.438-13.326 12.067-22.588zM294.067 37.438h-76.141l-7.314-22.408h90.77zm-95.624-11.255 6.845 20.971c.009.031.02.061.03.091l34.977 107.159-35.466-31.317 7.903-23.325a7.516 7.516 0 0 0-7.57-9.912l-22.717 1.368-1.801-33.14zm-55.444 312.276a7.516 7.516 0 0 0 8.849-.008c7.827-5.712 16.161-6.798 25.477-3.32 3.898 1.455 7.176 3.456 9.439 5.055-.894 2.627-2.375 6.17-4.676 9.636-5.477 8.248-12.819 12.258-22.441 12.258-.052 0-.104-.002-.156-.001a7.514 7.514 0 0 0-4.393 13.612c7.86 5.663 11.48 13.247 11.066 23.185-.173 4.16-1.059 7.899-1.877 10.548-2.774-.035-6.601-.341-10.609-1.453-9.582-2.658-15.689-8.432-18.668-17.653-1.002-3.102-3.901-5.204-7.161-5.204s-6.15 2.103-7.152 5.206c-1.143 3.539-2.746 6.564-4.833 9.103v-87.525c2.868-6.847 8.362-11.821 11.995-14.538 2.222 1.661 5.135 4.161 7.721 7.419 6.182 7.789 7.718 16.051 4.697 25.258a7.517 7.517 0 0 0 2.722 8.422zm.629 146.111c4.747-3.092 13.494-6.822 22.283-.405a7.514 7.514 0 0 0 11.572-8.41c-3.408-10.393 2.919-17.581 7.314-21.116 4.407 3.546 10.717 10.731 7.311 21.116a7.514 7.514 0 0 0 11.572 8.41c8.796-6.423 17.554-2.68 22.287.404-1.602 4.076-4.946 10.038-11.241 12.401h-59.863c-6.287-2.361-9.631-8.323-11.235-12.4zm164.039-11.12c2.805-2.082 7.233-4.957 12.635-7.048 12.162-4.709 23.508-3.316 33.718 4.137a7.514 7.514 0 0 0 11.57-8.413c-7.503-22.86 9.293-37.765 17.027-43.207 3.631 2.584 9.314 7.295 13.519 13.854v61.692a2.508 2.508 0 0 1-2.505 2.505h-70.168c-9.4-6.733-13.933-17.625-15.796-23.52zm-71.148 23.521c4.171-6.82 5.421-13.314 5.512-13.808a7.513 7.513 0 0 0-2.198-6.779c-5.799-5.548-18.292-12.831-31.927-10.196-1.698-13.779-12.478-23.417-19.542-27.221a7.515 7.515 0 0 0-7.124-.001c-7.067 3.804-17.853 13.442-19.553 27.222-13.632-2.635-26.128 4.649-31.928 10.196a7.513 7.513 0 0 0-2.198 6.779c.09.494 1.341 6.988 5.512 13.808H118.37a2.508 2.508 0 0 1-2.505-2.505v-75.962c4.711-2.583 8.736-5.957 11.993-10.049 10 12.505 25.512 16.077 36.636 16.077 4.644-.074 9.68.053 11.862-4.584 4.698-9.786 8.798-29.42-1.772-45.454 17.967-6.765 26.182-25.057 28.13-35.734a7.51 7.51 0 0 0-2.199-6.779c-7.846-7.505-25.249-17.5-43.779-12.415-.877-19.2-15.754-32.668-25.314-37.817a7.513 7.513 0 0 0-7.124 0c-.318.171-3.984 2.18-8.434 5.979v-87.332a7.515 7.515 0 1 0-15.03 0v54.121l-59.298-15.868c-1.662-.722-2.047-1.443-1.723-3.227l15.638-45.945c12.536-1.438 22.725-6.771 29.579-15.326 9.885 12.277 25.163 15.789 36.127 15.789 4.622-.067 9.626.032 11.793-4.581 4.629-9.647 8.668-28.979-1.691-44.806 17.677-6.721 25.76-24.742 27.679-35.271a7.517 7.517 0 0 0-2.199-6.777c-6.126-5.86-18.147-13.251-31.96-13.616l41.318-17.483 1.748 32.176a7.52 7.52 0 0 0 2.503 5.202 7.486 7.486 0 0 0 5.453 1.892l19.108-1.151L188.99 123a7.515 7.515 0 0 0 2.144 8.045l57.351 50.643v315.283zm93.029-405.752-22.717-1.368a7.514 7.514 0 0 0-7.57 9.912l7.903 23.325-35.464 31.316 15.727-48.184a7.516 7.516 0 0 0-4.812-9.476 7.512 7.512 0 0 0-9.476 4.812l-17.142 52.519-33.165-101.61h66.33l-6.702 20.532a7.516 7.516 0 0 0 14.288 4.664l9.931-30.425.026-.079 6.846-20.975 17.799 31.896zm99.938 44.082c-1.002-3.103-3.9-5.206-7.16-5.206s-6.15 2.103-7.152 5.206c-2.529 7.836-7.718 12.748-15.862 15.018-3.177.886-6.228 1.184-8.562 1.251-.652-2.243-1.302-5.235-1.434-8.527-.335-8.446 2.751-14.891 9.436-19.706a7.515 7.515 0 0 0-4.393-13.612h-.127c-8.186 0-14.439-3.406-19.109-10.41-1.829-2.741-3.06-5.544-3.849-7.739 3.98-2.711 11.004-6.408 18.673-5.533l35.644 15.082a2.507 2.507 0 0 1 1.396 1.5l15.98 46.952c-5.706-2.146-10.926-6.365-13.481-14.276z"/>
  <path d="M327.764 284.731a7.516 7.516 0 0 0 7.947 0l32.561-20.282a7.513 7.513 0 0 0 3.542-6.379v-52.68a7.515 7.515 0 0 0-7.515-7.515h-65.124a7.514 7.514 0 0 0-7.515 7.515v52.68a7.517 7.517 0 0 0 3.542 6.379zm-21.074-71.827h50.094v40.993l-25.047 15.602-25.047-15.602zm68.711 126.791a7.511 7.511 0 0 0-2.198-6.778c-5.112-4.89-15.984-11.271-27.953-9.376-1.896-11.975-11.314-20.344-17.543-23.698a7.512 7.512 0 0 0-7.125 0c-6.229 3.354-15.646 11.723-17.542 23.698-11.965-1.887-22.842 4.487-27.953 9.377a7.513 7.513 0 0 0-2.198 6.778c1.268 6.956 6.316 18.486 17.11 23.987-5.503 10.791-2.819 23.089.24 29.462 1.821 3.956 6.009 4.557 10.047 4.469 7.131 0 16.828-2.091 23.859-9.119 8.582 8.578 21.132 9.801 28.147 8.845a7.512 7.512 0 0 0 5.759-4.195c3.059-6.374 5.743-18.672.24-29.463 10.791-5.502 15.842-17.032 17.11-23.987zm-30.603 12.064h-.088a7.515 7.515 0 0 0-4.393 13.612c6.989 5.035 6.677 12.48 5.575 17.128-4.75-.376-11.869-2.347-14.55-10.423a7.477 7.477 0 0 0-1.125-2.258 7.57 7.57 0 0 0-1.083-1.191 7.484 7.484 0 0 0-4.955-1.893h-.072a7.47 7.47 0 0 0-4.329 1.395 7.502 7.502 0 0 0-2.79 3.81c-2.648 8.199-9.83 10.185-14.591 10.563-1.107-4.662-1.413-12.099 5.571-17.131a7.515 7.515 0 0 0-4.393-13.612h-.088c-8.573 0-12.677-6.19-14.51-10.588 4.087-2.499 11.062-5.101 18.015-.025a7.513 7.513 0 0 0 11.57-8.412c-2.686-8.186 1.949-14.02 5.576-17.128 3.639 3.118 8.265 8.949 5.581 17.128a7.514 7.514 0 0 0 11.571 8.412c6.957-5.08 13.938-2.47 18.013.021-1.834 4.413-5.937 10.592-14.505 10.592zM209.721 192.833c-1.896-11.975-11.313-20.344-17.542-23.698a7.512 7.512 0 0 0-7.125 0c-6.229 3.354-15.647 11.723-17.543 23.698-11.972-1.887-22.842 4.487-27.953 9.377a7.511 7.511 0 0 0-2.198 6.778c1.268 6.956 6.317 18.486 17.111 23.987-5.503 10.791-2.819 23.089.24 29.462a7.514 7.514 0 0 0 5.759 4.195c7.015.956 19.563-.267 28.147-8.844 7.031 7.028 16.728 9.119 23.859 9.119 4.036.089 8.228-.515 10.047-4.469 3.059-6.373 5.742-18.672.24-29.463 10.791-5.501 15.842-17.031 17.11-23.986a7.511 7.511 0 0 0-2.198-6.778c-5.112-4.892-15.988-11.267-27.954-9.378zm-.451 28.218h-.088a7.516 7.516 0 0 0-4.393 13.612c6.995 5.04 6.677 12.492 5.573 17.139-4.703-.371-11.856-2.326-14.548-10.434-1.812-6.892-12.389-7.035-14.352-.138-2.649 8.199-9.83 10.186-14.591 10.563-1.107-4.662-1.413-12.099 5.572-17.131a7.516 7.516 0 0 0-4.393-13.612h-.088c-8.579 0-12.684-6.2-14.516-10.598 4.047-2.476 11.04-5.111 18.019-.015a7.514 7.514 0 0 0 11.571-8.412c-2.686-8.186 1.95-14.02 5.576-17.128 3.639 3.117 8.265 8.949 5.581 17.128a7.514 7.514 0 0 0 11.57 8.412c6.968-5.087 13.95-2.466 18.023.026-1.816 4.371-5.916 10.588-14.516 10.588z"/>
</svg>