<svg xmlns="http://www.w3.org/2000/svg" xml:space="preserve" viewBox="0 0 512.001 512.001">
  <path fill="#f33a3a" d="m504.475 249.687.041-.029-3.769-.814c-11.334-2.873-47.191-14.212-92.756-51.043-74.899-60.542-112.349-71.187-140.831-33.265a61.154 61.154 0 0 0-1.875 2.641c-4.415 6.582-14.099 6.582-18.514 0a60.295 60.295 0 0 0-1.875-2.641c-28.483-37.922-65.932-27.277-140.831 33.265-45.343 36.651-81.072 48.06-92.589 51.001l-3.965.856.047.033a.618.618 0 0 0-.018.003l.023.001c1.703 1.182 48.296 31.669 77.787 68.679 51.027 64.036 94.218 51.577 170.663 47.537 76.445 4.04 119.636 16.499 170.663-47.537 29.483-37 76.059-67.48 77.785-68.677l.055-.002-.041-.008z"/>
  <path fill="#e23333" d="M504.517 249.659s-71.681 15.999-101.805 41.824c-62.163 53.292-108.388 40.333-184.833 36.293-59.486 3.144-98.836 11.379-137.411-15.293a206.128 206.128 0 0 1 4.883 5.891c51.027 64.036 94.218 51.577 170.663 47.537 76.445 4.04 119.636 16.499 170.663-47.537 29.483-37 76.059-67.48 77.785-68.677l.055-.002-.041-.007.041-.029z"/>
  <path fill="#ff4c4c" d="m504.404 249.634-3.655-.789c-11.334-2.873-47.191-14.212-92.756-51.043-74.899-60.542-112.349-71.187-140.831-33.265a61.154 61.154 0 0 0-1.875 2.641c-4.415 6.582-14.099 6.582-18.514 0a60.295 60.295 0 0 0-1.875-2.641c-28.483-37.922-65.932-27.277-140.831 33.265-45.343 36.651-81.072 48.06-92.589 51.001l-3.852.832c.648.114 76.165 13.338 173.211-2.726 18.977-3.141 42.43 5.506 57.351 12.432l.17.078c11.172 5.137 24.144 5.137 35.316 0l.17-.078c14.921-6.927 38.374-15.573 57.351-12.432 97.043 16.063 172.559 2.84 173.209 2.725z"/>
  <path d="M511.853 248.179a7.47 7.47 0 0 0-5.047-5.627 7.543 7.543 0 0 0-.543-.16c-.057-.014-.11-.037-.167-.049l-3.637-.785c-34.896-8.885-70.959-34.861-85.847-46.47a289.399 289.399 0 0 1-3.916-3.107c-53.856-43.532-86.623-59.947-113.126-56.663a48.672 48.672 0 0 0-8.053 1.69c-11.318 3.404-21.303 11-30.344 23.036a66.98 66.98 0 0 0-2.104 2.965c-.946 1.411-2.312 1.622-3.042 1.622s-2.094-.211-3.043-1.624a68.621 68.621 0 0 0-2.076-2.925l-.028-.039c-11.084-14.756-23.587-22.836-38.225-24.702-25.549-3.263-58.033 12.565-108.641 52.905a7.484 7.484 0 1 0 9.33 11.706c46.513-37.074 76.557-52.423 97.418-49.761 10.559 1.346 19.504 7.334 28.147 18.842.562.75 1.116 1.53 1.645 2.317a18.595 18.595 0 0 0 15.471 8.252h.001a18.627 18.627 0 0 0 6.716-1.248 18.621 18.621 0 0 0 8.759-7.005 52.326 52.326 0 0 1 1.641-2.313c8.675-11.55 17.658-17.543 28.269-18.859 21.729-2.694 52.191 13.291 101.873 53.45a390.959 390.959 0 0 0 5.514 4.368 381.672 381.672 0 0 0 3.865 2.97c.155.118.312.24.468.357a351.535 351.535 0 0 0 5.275 3.902c1.183.86 2.358 1.703 3.525 2.529.235.166.472.337.706.502 1.357.955 2.7 1.885 4.033 2.795.325.222.648.439.972.659 1.106.749 2.203 1.484 3.292 2.202.281.185.563.374.843.558 1.297.85 2.58 1.679 3.851 2.487.284.181.565.356.848.534 1.054.665 2.098 1.315 3.133 1.952.301.185.604.373.904.556 1.236.754 2.46 1.49 3.669 2.204l.68.398c1.023.6 2.035 1.186 3.037 1.758.308.176.616.352.922.525a290.99 290.99 0 0 0 3.48 1.941l.445.241a276.38 276.38 0 0 0 3.92 2.096c1.107.58 2.205 1.15 3.281 1.695l.137.068a264.809 264.809 0 0 0 6.668 3.25c.126.059.255.122.381.18.995.465 1.969.909 2.93 1.343l.34.156c-30.873 2.236-80.86 3.133-137.99-6.323-20.505-3.391-44.886 5.211-61.724 13.028l-.144.067a34.726 34.726 0 0 1-29.031.015l-.176-.082c-16.838-7.817-41.217-16.423-61.724-13.028-57.204 9.469-107.199 8.565-138.055 6.322 11.919-5.35 26.596-13.126 43.109-24.324a7.485 7.485 0 1 0-8.401-12.389c-32.716 22.183-57.31 30.019-66.503 32.382l-3.834.828c-.059.013-.113.036-.171.05-.18.046-.358.098-.531.156-2.578.825-4.557 2.961-5.086 5.653a7.45 7.45 0 0 0 2.359 7.027c.374.342.785.645 1.222.905l.161.108c11.299 7.589 50.144 34.835 75.613 66.796 22.137 27.781 43.763 43.163 70.122 49.873 12.261 3.121 25.057 4.173 38.663 4.173 13.041 0 26.827-.966 41.597-2.001 8.353-.585 16.986-1.19 26.134-1.678 9.149.487 17.782 1.092 26.135 1.678 58.176 4.076 100.208 7.021 145.463-46.073a7.484 7.484 0 1 0-11.393-9.71c-40.354 47.343-75.237 44.899-133.024 40.85-8.536-.598-17.363-1.216-26.787-1.715a7.416 7.416 0 0 0-.789 0c-9.423.499-18.249 1.117-26.785 1.715-59.434 4.166-95.304 6.677-137.63-46.441-16.794-21.075-38.924-40.072-56.006-53.268 31.049 2.609 84.391 4.191 146.86-6.149 13.065-2.164 31.877 2.042 52.97 11.834l.109.05.093.043a49.738 49.738 0 0 0 20.784 4.555 49.72 49.72 0 0 0 20.979-4.645c21.099-9.795 39.91-14.001 52.977-11.837 62.429 10.333 115.78 8.752 146.842 6.146-11.065 8.545-24.152 19.457-36.607 31.829a7.486 7.486 0 0 0 10.55 10.62c22.713-22.563 47.697-40.135 57.384-46.642a.52.52 0 0 1 .03-.02 7.494 7.494 0 0 0 3.071-3.278 7.503 7.503 0 0 0 .614-4.774z"/>
</svg>