<svg xmlns="http://www.w3.org/2000/svg" viewBox="0 0 512 512">
  <path fill="#622876" d="M256 504.5c45.271 0 87.711-12.112 124.267-33.263v-10.834z"/>
  <path fill="#962b7c" d="m256 256-58.242 146.576L256 504.5c46.17 0 88.986-16.301 124.267-44.097V256z"/>
  <path fill="#2d2570" d="m375.933 463.731 4.334 7.506a249.714 249.714 0 0 0 90.97-90.97v-81.305z"/>
  <path fill="#622876" d="M471.237 298.962V256H256l119.933 207.731c49.354-36.931 84.763-95.987 95.304-164.769z"/>
  <path fill="#0556b2" d="m473.956 238.546-23.087 129.961 20.369 11.76C492.388 343.711 504.5 301.271 504.5 256z"/>
  <path fill="#077ccc" d="m473.956 238.546-71.38-40.788L256 256l194.868 112.507C465.977 334.727 474.5 296.496 474.5 256c0-5.869-.192-11.687-.544-17.454z"/>
  <path fill="#077ccc" d="M471.237 131.733h-25.984L474.5 256h30c0-45.271-12.112-87.711-33.263-124.267z"/>
  <path fill="#09a1e5" d="M285.121 131.733 256 256h218.5c0-45.271-10.65-87.711-29.247-124.267z"/>
  <path fill="#2897b1" d="M380.267 40.763h-15.002l85.603 102.729 20.369-11.76a249.712 249.712 0 0 0-90.97-90.969z"/>
  <path fill="#49b296" d="M365.265 40.763h-80.144L256 256l194.868-112.507c-19.204-42.939-49.056-78.68-85.603-102.73z"/>
  <path fill="#49b296" d="m256 7.5 119.933 40.769 4.334-7.506C343.711 19.612 301.271 7.5 256 7.5z"/>
  <path fill="#89c247" d="M197.758 109.424 256 256 375.933 48.269C341.503 22.505 300.296 7.5 256 7.5z"/>
  <path fill="#cb2e81" d="M131.733 471.237C168.289 492.388 210.729 504.5 256 504.5V256H131.733z"/>
  <path fill="#ff3187" d="M40.763 380.267a249.707 249.707 0 0 0 90.97 90.97L256 256H40.763z"/>
  <path fill="#ff5178" d="M7.5 256c0 45.271 12.112 87.711 33.263 124.267L256 256l-146.576-58.242z"/>
  <path fill="#ff9259" d="M40.763 131.733C19.612 168.289 7.5 210.729 7.5 256H256l-29.121-124.267z"/>
  <path fill="#ffb24a" d="M131.733 40.763a249.707 249.707 0 0 0-90.97 90.97L256 256 226.879 40.763z"/>
  <path fill="#ffd23b" d="M256 7.5c-45.271 0-87.711 12.112-124.267 33.263L256 256z"/>
  <path fill="#fff0be" d="M256 116v280c77.32 0 140-62.68 140-140s-62.68-140-140-140z"/>
  <path fill="#fff" d="M366 256c0-77.32-49.249-140-110-140-77.32 0-140 62.68-140 140s62.68 140 140 140c60.751 0 110-62.68 110-140z"/>
  <path d="M256 512c-68.38 0-132.667-26.629-181.02-74.98C26.629 388.668 0 324.38 0 256S26.629 123.333 74.98 74.98C123.333 26.629 187.62 0 256 0s132.668 26.629 181.02 74.98C485.371 123.333 512 187.62 512 256s-26.629 132.668-74.98 181.02S324.38 512 256 512zm0-497C123.112 15 15 123.112 15 256s108.112 241 241 241 241-108.112 241-241S388.888 15 256 15z"/>
  <path d="M256 403.5c-81.332 0-147.5-66.168-147.5-147.5S174.668 108.5 256 108.5 403.5 174.668 403.5 256 337.332 403.5 256 403.5zm0-280c-73.061 0-132.5 59.439-132.5 132.5S182.939 388.5 256 388.5 388.5 329.061 388.5 256 329.061 123.5 256 123.5z"/>
  <path d="M256 512a7.5 7.5 0 0 1-7.5-7.5V396c0-4.143 3.358-7.5 7.5-7.5s7.5 3.357 7.5 7.5v108.5a7.5 7.5 0 0 1-7.5 7.5zm124.257-33.292a7.498 7.498 0 0 1-6.502-3.751l-54.25-93.963a7.5 7.5 0 0 1 12.99-7.5l54.25 93.963a7.5 7.5 0 0 1-6.488 11.251zm90.943-90.957a7.465 7.465 0 0 1-3.743-1.006l-93.963-54.25a7.5 7.5 0 0 1-2.745-10.245 7.498 7.498 0 0 1 10.245-2.745l93.963 54.25a7.5 7.5 0 0 1-3.757 13.996zM504.5 263.5H396c-4.143 0-7.5-3.358-7.5-7.5s3.357-7.5 7.5-7.5h108.5c4.143 0 7.5 3.358 7.5 7.5s-3.357 7.5-7.5 7.5zm-127.249-69.999a7.5 7.5 0 0 1-3.757-13.996l93.963-54.25a7.5 7.5 0 0 1 7.5 12.99l-93.963 54.25a7.465 7.465 0 0 1-3.743 1.006zm-51.258-51.244a7.5 7.5 0 0 1-6.488-11.251l54.25-93.963A7.498 7.498 0 0 1 384 34.298a7.5 7.5 0 0 1 2.745 10.245l-54.25 93.963a7.497 7.497 0 0 1-6.502 3.751zM256 123.5a7.5 7.5 0 0 1-7.5-7.5V7.5a7.5 7.5 0 0 1 15 0V116a7.5 7.5 0 0 1-7.5 7.5zm-69.993 18.757a7.497 7.497 0 0 1-6.502-3.751l-54.25-93.963a7.5 7.5 0 0 1 12.99-7.5l54.25 93.963a7.5 7.5 0 0 1-6.488 11.251zm-51.258 51.244a7.465 7.465 0 0 1-3.743-1.006l-93.963-54.25A7.5 7.5 0 0 1 34.298 128a7.498 7.498 0 0 1 10.245-2.745l93.963 54.25a7.5 7.5 0 0 1-3.757 13.996zM116 263.5H7.5a7.5 7.5 0 0 1 0-15H116a7.5 7.5 0 0 1 0 15zM40.8 387.751a7.5 7.5 0 0 1-3.757-13.996l93.963-54.25a7.5 7.5 0 0 1 7.5 12.99l-93.963 54.25a7.465 7.465 0 0 1-3.743 1.006zm90.943 90.957a7.5 7.5 0 0 1-6.488-11.251l54.25-93.963a7.5 7.5 0 0 1 12.99 7.5l-54.25 93.963a7.497 7.497 0 0 1-6.502 3.751z"/>
  <path fill="#ff3187" d="M301.664 229.601 256 176v152.5c33.137 0 60-26.863 60-60 0-14.846-5.404-28.423-14.336-38.899z"/>
  <path fill="#ff5178" d="M286 268.5c0-14.846-2.702-28.423-7.168-38.899L256 176l-45.664 53.601C201.404 240.077 196 253.654 196 268.5c0 33.137 26.863 60 60 60 16.569 0 30-26.863 30-60z"/>
  <path d="M256 336c-37.22 0-67.5-30.28-67.5-67.5a67.517 67.517 0 0 1 16.129-43.765 7.5 7.5 0 0 1 11.414 9.732A52.504 52.504 0 0 0 203.5 268.5c0 28.948 23.551 52.5 52.5 52.5s52.5-23.552 52.5-52.5a52.508 52.508 0 0 0-12.543-34.033L256 187.565l-20.5 24.063a7.497 7.497 0 0 1-10.573.845 7.5 7.5 0 0 1-.845-10.573l26.209-30.765a7.502 7.502 0 0 1 11.418 0l45.664 53.601a67.516 67.516 0 0 1 16.127 43.763C323.5 305.72 293.22 336 256 336z"/>
</svg>